# This file uses centimeters as units for non-parametric coordinates.

mtllib M_HospitalCombined.mtl
g default
v -2.282565 5.920059 2.718648
v -2.648590 5.920059 2.352623
v -3.148590 5.920059 2.218648
v -3.648590 5.920059 2.352623
v -4.014616 5.920059 2.718648
v -4.148590 5.920059 3.218648
v -4.014616 5.920059 3.718648
v -3.648590 5.920059 4.084673
v -3.148590 5.920059 4.218648
v -2.648590 5.920059 4.084673
v -2.282565 5.920059 3.718648
v -2.148590 5.920059 3.218648
v -2.282565 6.320059 2.718648
v -2.648590 6.320059 2.352623
v -3.148590 6.320059 2.218648
v -3.648590 6.320059 2.352623
v -4.014616 6.320059 2.718648
v -4.148590 6.320059 3.218648
v -4.014616 6.320059 3.718648
v -3.648590 6.320059 4.084673
v -3.148590 6.320059 4.218648
v -2.648590 6.320059 4.084673
v -2.282565 6.320059 3.718648
v -2.148590 6.320059 3.218648
v -3.148590 5.920059 3.218648
v -3.148590 6.320059 3.218648
v -4.000000 6.000000 0.000000
v 4.000000 6.000000 0.000000
v -4.000000 10.000000 0.000000
v 4.000000 10.000000 0.000000
v -4.000000 10.000000 -4.000000
v 4.000000 10.000000 -4.000000
v -4.000000 6.000000 -4.000000
v 4.000000 6.000000 -4.000000
v -5.000000 0.000000 5.000000
v 5.000000 0.000000 5.000000
v -5.000000 6.000000 5.000000
v 5.000000 6.000000 5.000000
v -5.000000 6.000000 -5.000000
v 5.000000 6.000000 -5.000000
v -5.000000 0.000000 -5.000000
v 5.000000 0.000000 -5.000000
v -4.800000 6.000000 4.800000
v 4.800000 6.000000 4.800000
v 4.800000 6.000000 -4.800000
v -4.800000 6.000000 -4.800000
v -5.000000 6.382705 5.000000
v 5.000000 6.382705 5.000000
v 4.800000 6.382705 4.800000
v -4.800000 6.382705 4.800000
v 5.000000 6.382705 -5.000000
v 4.800000 6.382705 -4.800000
v -5.000000 6.382705 -5.000000
v -4.800000 6.382705 -4.800000
vt 0.236914 0.070414
vt 0.194897 0.028396
vt 0.137500 0.013017
vt 0.080103 0.028396
vt 0.038086 0.070414
vt 0.022706 0.127811
vt 0.038086 0.185208
vt 0.080103 0.227225
vt 0.137500 0.242605
vt 0.194897 0.227225
vt 0.236914 0.185208
vt 0.252294 0.127811
vt 0.045665 0.242605
vt 0.060971 0.242605
vt 0.076277 0.242605
vt 0.091582 0.242605
vt 0.106888 0.242605
vt 0.122194 0.242605
vt 0.137500 0.242605
vt 0.152806 0.242605
vt 0.168112 0.242605
vt 0.183417 0.242605
vt 0.198723 0.242605
vt 0.214029 0.242605
vt 0.229335 0.242605
vt 0.045665 0.518800
vt 0.060971 0.518800
vt 0.076277 0.518800
vt 0.091582 0.518800
vt 0.106888 0.518800
vt 0.122194 0.518800
vt 0.137500 0.518800
vt 0.152806 0.518800
vt 0.168112 0.518800
vt 0.183417 0.518800
vt 0.198723 0.518800
vt 0.214029 0.518800
vt 0.229335 0.518800
vt 0.719613 0.766578
vt 0.677595 0.724561
vt 0.620198 0.709181
vt 0.562801 0.724561
vt 0.520784 0.766578
vt 0.505404 0.823975
vt 0.520784 0.881372
vt 0.562801 0.923389
vt 0.620198 0.938769
vt 0.677595 0.923389
vt 0.719613 0.881372
vt 0.734992 0.823975
vt 0.137500 0.123219
vt 0.620198 0.819383
vt 0.332131 0.974671
vt 0.185863 0.974671
vt 0.185863 0.828402
vt 0.332131 0.828402
vt 0.185863 0.682133
vt 0.332131 0.682133
vt 0.185863 0.535865
vt 0.332131 0.535865
vt 0.039594 0.974671
vt 0.039594 0.828402
vt 0.478400 0.974671
vt 0.478400 0.828402
vt 0.289836 0.023455
vt 0.492981 0.023455
vt 0.492981 0.226599
vt 0.289836 0.226599
vt 0.579948 0.672693
vt 0.579948 0.477674
vt 0.774966 0.477674
vt 0.774966 0.672693
vt 0.497603 0.036412
vt 0.700748 0.036412
vt 0.700748 0.239557
vt 0.497603 0.239557
vt 0.497520 0.248849
vt 0.700665 0.248849
vt 0.700665 0.451994
vt 0.497520 0.451994
vt 0.290640 0.248849
vt 0.493785 0.248849
vt 0.493785 0.451994
vt 0.290640 0.451994
vt 0.372180 0.680819
vt 0.372180 0.477674
vt 0.376243 0.481737
vt 0.376243 0.676756
vt 0.575325 0.477674
vt 0.571262 0.481737
vt 0.575325 0.680819
vt 0.571262 0.676756
vt 0.492981 0.239557
vt 0.289836 0.239557
vt 0.792248 0.477675
vt 0.792248 0.672693
vt 0.779290 0.672693
vt 0.779290 0.477675
vt 0.700665 0.464951
vt 0.497520 0.464951
vt 0.797089 0.672693
vt 0.797089 0.477674
vt 0.810046 0.477674
vt 0.810046 0.672693
vt 0.497603 0.023455
vt 0.700748 0.023455
vt 0.814887 0.672693
vt 0.814887 0.477674
vt 0.827845 0.477674
vt 0.827845 0.672693
vt 0.493785 0.464951
vt 0.290640 0.464951
vt 0.832686 0.672693
vt 0.832686 0.477674
vt 0.845643 0.477674
vt 0.845643 0.672693
vn 0.707107 0.000000 -0.707107
vn 0.707107 0.000000 -0.707107
vn 0.707107 0.000000 -0.707107
vn 0.707107 0.000000 -0.707107
vn 0.258819 0.000000 -0.965926
vn 0.258819 0.000000 -0.965926
vn 0.258819 0.000000 -0.965926
vn 0.258819 0.000000 -0.965926
vn -0.258819 0.000000 -0.965926
vn -0.258819 0.000000 -0.965926
vn -0.258819 0.000000 -0.965926
vn -0.258819 0.000000 -0.965926
vn -0.707107 0.000000 -0.707107
vn -0.707107 0.000000 -0.707107
vn -0.707107 0.000000 -0.707107
vn -0.707107 0.000000 -0.707107
vn -0.965926 0.000000 -0.258819
vn -0.965926 0.000000 -0.258819
vn -0.965926 0.000000 -0.258819
vn -0.965926 0.000000 -0.258819
vn -0.965926 0.000000 0.258819
vn -0.965926 0.000000 0.258819
vn -0.965926 0.000000 0.258819
vn -0.965926 0.000000 0.258819
vn -0.707107 0.000000 0.707107
vn -0.707107 0.000000 0.707107
vn -0.707107 0.000000 0.707107
vn -0.707107 0.000000 0.707107
vn -0.258819 0.000000 0.965926
vn -0.258819 0.000000 0.965926
vn -0.258819 0.000000 0.965926
vn -0.258819 0.000000 0.965926
vn 0.258819 0.000000 0.965926
vn 0.258819 0.000000 0.965926
vn 0.258819 0.000000 0.965926
vn 0.258819 0.000000 0.965926
vn 0.707107 0.000000 0.707107
vn 0.707107 0.000000 0.707107
vn 0.707107 0.000000 0.707107
vn 0.707107 0.000000 0.707107
vn 0.965926 0.000000 0.258819
vn 0.965926 0.000000 0.258819
vn 0.965926 0.000000 0.258819
vn 0.965926 0.000000 0.258819
vn 0.965926 0.000000 -0.258819
vn 0.965926 0.000000 -0.258819
vn 0.965926 0.000000 -0.258819
vn 0.965926 0.000000 -0.258819
vn 0.000000 -1.000000 0.000000
vn 0.000000 -1.000000 0.000000
vn 0.000000 -1.000000 0.000000
vn 0.000000 -1.000000 0.000000
vn 0.000000 -1.000000 0.000001
vn 0.000000 -1.000000 0.000001
vn 0.000000 -1.000000 0.000000
vn 0.000000 -1.000000 -0.000000
vn 0.000000 -1.000000 -0.000000
vn 0.000000 -1.000000 0.000000
vn 0.000000 -1.000000 -0.000001
vn 0.000000 -1.000000 -0.000001
vn 0.000000 -1.000000 0.000000
vn 0.000000 1.000000 -0.000001
vn 0.000000 1.000000 -0.000001
vn 0.000000 1.000000 -0.000000
vn 0.000000 1.000000 0.000000
vn 0.000000 1.000000 -0.000000
vn 0.000000 1.000000 -0.000000
vn 0.000000 1.000000 0.000000
vn 0.000000 1.000000 0.000001
vn 0.000000 1.000000 0.000001
vn 0.000000 1.000000 0.000000
vn 0.000000 1.000000 0.000000
vn 0.000000 1.000000 0.000000
vn 0.000000 1.000000 0.000000
vn 0.000000 0.000000 1.000000
vn 0.000000 0.000000 1.000000
vn 0.000000 0.000000 1.000000
vn 0.000000 0.000000 1.000000
vn 0.000000 1.000000 0.000000
vn 0.000000 1.000000 0.000000
vn 0.000000 1.000000 0.000000
vn 0.000000 1.000000 0.000000
vn 0.000000 0.000000 -1.000000
vn 0.000000 0.000000 -1.000000
vn 0.000000 0.000000 -1.000000
vn 0.000000 0.000000 -1.000000
vn 1.000000 0.000000 0.000000
vn 1.000000 0.000000 0.000000
vn 1.000000 0.000000 0.000000
vn 1.000000 0.000000 0.000000
vn -1.000000 0.000000 0.000000
vn -1.000000 0.000000 0.000000
vn -1.000000 0.000000 0.000000
vn -1.000000 0.000000 0.000000
vn 0.000000 0.000000 1.000000
vn 0.000000 0.000000 1.000000
vn 0.000000 0.000000 1.000000
vn 0.000000 0.000000 1.000000
vn 0.000000 1.000000 0.000000
vn 0.000000 1.000000 0.000000
vn 0.000000 1.000000 0.000000
vn 0.000000 1.000000 0.000000
vn 0.000000 0.000000 -1.000000
vn 0.000000 0.000000 -1.000000
vn 0.000000 0.000000 -1.000000
vn 0.000000 0.000000 -1.000000
vn 1.000000 0.000000 0.000000
vn 1.000000 0.000000 0.000000
vn 1.000000 0.000000 0.000000
vn 1.000000 0.000000 0.000000
vn -1.000000 0.000000 0.000000
vn -1.000000 0.000000 0.000000
vn -1.000000 0.000000 0.000000
vn -1.000000 0.000000 0.000000
vn 0.000000 1.000000 -0.000001
vn 0.000000 1.000000 -0.000001
vn 0.000000 1.000000 -0.000001
vn 0.000000 1.000000 -0.000001
vn 0.000000 1.000000 0.000001
vn 0.000000 1.000000 0.000001
vn 0.000000 1.000000 0.000001
vn 0.000000 1.000000 0.000001
vn 0.000000 0.000000 1.000000
vn 0.000000 0.000000 1.000000
vn 0.000000 0.000000 1.000000
vn 0.000000 0.000000 1.000000
vn 0.000000 0.000000 -1.000000
vn 0.000000 0.000000 -1.000000
vn 0.000000 0.000000 -1.000000
vn 0.000000 0.000000 -1.000000
vn 1.000000 0.000000 0.000000
vn 1.000000 0.000000 0.000000
vn 1.000000 0.000000 0.000000
vn 1.000000 0.000000 0.000000
vn -1.000000 0.000000 0.000000
vn -1.000000 0.000000 0.000000
vn -1.000000 0.000000 0.000000
vn -1.000000 0.000000 0.000000
vn 0.000000 0.000000 -1.000000
vn 0.000000 0.000000 -1.000000
vn 0.000000 0.000000 -1.000000
vn 0.000000 0.000000 -1.000000
vn 0.000000 0.000000 1.000000
vn 0.000000 0.000000 1.000000
vn 0.000000 0.000000 1.000000
vn 0.000000 0.000000 1.000000
vn -1.000000 0.000000 0.000000
vn -1.000000 0.000000 0.000000
vn -1.000000 0.000000 0.000000
vn -1.000000 0.000000 0.000000
vn 1.000000 0.000000 0.000000
vn 1.000000 0.000000 0.000000
vn 1.000000 0.000000 0.000000
vn 1.000000 0.000000 0.000000
s off
g pCylinder2
usemtl initialShadingGroup
f 1/13/1 2/14/2 14/27/3 13/26/4
f 2/14/5 3/15/6 15/28/7 14/27/8
f 3/15/9 4/16/10 16/29/11 15/28/12
f 4/16/13 5/17/14 17/30/15 16/29/16
f 5/17/17 6/18/18 18/31/19 17/30/20
f 6/18/21 7/19/22 19/32/23 18/31/24
f 7/19/25 8/20/26 20/33/27 19/32/28
f 8/20/29 9/21/30 21/34/31 20/33/32
f 9/21/33 10/22/34 22/35/35 21/34/36
f 10/22/37 11/23/38 23/36/39 22/35/40
f 11/23/41 12/24/42 24/37/43 23/36/44
f 12/24/45 1/25/46 13/38/47 24/37/48
s 1
f 2/2/49 1/1/50 25/51/51
f 3/3/52 2/2/49 25/51/51
f 4/4/53 3/3/52 25/51/51
f 5/5/54 4/4/53 25/51/51
f 6/6/55 5/5/54 25/51/51
f 7/7/56 6/6/55 25/51/51
f 8/8/57 7/7/56 25/51/51
f 9/9/58 8/8/57 25/51/51
f 10/10/59 9/9/58 25/51/51
f 11/11/60 10/10/59 25/51/51
f 12/12/61 11/11/60 25/51/51
f 1/1/50 12/12/61 25/51/51
s 2
f 13/49/62 14/48/63 26/52/64
f 14/48/63 15/47/65 26/52/64
f 15/47/65 16/46/66 26/52/64
f 16/46/66 17/45/67 26/52/64
f 17/45/67 18/44/68 26/52/64
f 18/44/68 19/43/69 26/52/64
f 19/43/69 20/42/70 26/52/64
f 20/42/70 21/41/71 26/52/64
f 21/41/71 22/40/72 26/52/64
f 22/40/72 23/39/73 26/52/64
f 23/39/73 24/50/74 26/52/64
f 24/50/74 13/49/62 26/52/64
s off
f 27/53/75 28/54/76 30/55/77 29/56/78
f 29/56/79 30/55/80 32/57/81 31/58/82
f 31/58/83 32/57/84 34/59/85 33/60/86
f 28/54/87 34/61/88 32/62/89 30/55/90
f 33/63/91 27/53/92 29/56/93 31/64/94
f 35/65/95 36/66/96 38/67/97 37/68/98
f 43/69/99 44/70/100 45/71/101 46/72/102
f 39/73/103 40/74/104 42/75/105 41/76/106
f 36/77/107 42/78/108 40/79/109 38/80/110
f 41/81/111 35/82/112 37/83/113 39/84/114
s 3
f 47/85/115 48/86/116 49/87/117 50/88/118
f 48/86/116 51/89/119 52/90/120 49/87/117
f 51/89/119 53/91/121 54/92/122 52/90/120
f 53/91/121 47/85/115 50/88/118 54/92/122
s off
f 37/68/123 38/67/124 48/93/125 47/94/126
f 44/95/127 43/96/128 50/97/129 49/98/130
f 38/80/131 40/79/132 51/99/133 48/100/134
f 45/101/135 44/102/136 49/103/137 52/104/138
f 40/74/139 39/73/140 53/105/141 51/106/142
f 46/107/143 45/108/144 52/109/145 54/110/146
f 39/84/147 37/83/148 47/111/149 53/112/150
f 43/113/151 46/114/152 54/115/153 50/116/154
g default
v -1.369776 14.166360 1.369776
v 1.369776 14.166360 1.369776
v -1.369776 16.905914 1.369776
v 1.369776 16.905914 1.369776
v -1.369776 16.905914 -1.369776
v 1.369776 16.905914 -1.369776
v -1.369776 14.166360 -1.369776
v 1.369776 14.166360 -1.369776
v -1.369776 19.546253 1.369776
v 1.369776 19.546253 1.369776
v 1.369776 19.546253 -1.369776
v -1.369776 19.546253 -1.369776
v -1.369776 11.526025 -1.369776
v 1.369776 11.526025 -1.369776
v 1.369776 11.526025 1.369776
v -1.369776 11.526025 1.369776
v 3.900027 14.166360 -1.369776
v 3.900027 14.166360 1.369776
v 3.900027 16.905914 -1.369776
v 3.900027 16.905914 1.369776
v -3.900027 14.166360 -1.369776
v -3.900027 14.166360 1.369776
v -3.900027 16.905914 1.369776
v -3.900027 16.905914 -1.369776
vt 0.831010 0.871481
vt 0.831010 0.790920
vt 0.911570 0.790920
vt 0.911570 0.871481
vt 0.753368 0.871481
vt 0.753368 0.790920
vt 0.831010 0.716515
vt 0.911570 0.716515
vt 0.989213 0.790920
vt 0.989213 0.871481
vt 0.911570 0.945886
vt 0.831010 0.945886
vt 0.831011 0.871481
vt 0.831011 0.790920
vt 0.911570 0.790920
vt 0.911570 0.871481
vt 0.753368 0.871481
vt 0.753368 0.790920
vt 0.831011 0.716515
vt 0.911570 0.716515
vt 0.989213 0.790920
vt 0.989213 0.871481
vt 0.911570 0.945886
vt 0.831011 0.945886
vt 0.895771 0.382621
vt 0.816721 0.382621
vt 0.816737 0.303604
vt 0.895787 0.303604
vt 0.816686 0.129295
vt 0.816686 0.208312
vt 0.815910 0.122728
vt 0.815915 0.043710
vt 0.894967 0.043710
vt 0.894957 0.122728
vt 0.896719 0.218020
vt 0.896714 0.297037
vt 0.817661 0.297037
vt 0.817672 0.218020
vt 0.737669 0.382621
vt 0.974022 0.043710
vt 0.974839 0.303604
vt 0.738607 0.297037
vt 0.974784 0.129294
vt 0.736864 0.122728
vt 0.737638 0.208295
vt 0.975764 0.218020
vt 0.895736 0.129294
vt 0.895736 0.208312
vt 0.974819 0.382621
vt 0.738627 0.218020
vt 0.974002 0.122728
vt 0.737689 0.303604
vt 0.736860 0.043710
vt 0.974789 0.208312
vt 0.737634 0.129278
vt 0.975769 0.297037
vn 0.000000 0.000000 1.000000
vn 0.000000 0.000000 1.000000
vn 0.000000 0.000000 1.000000
vn 0.000000 0.000000 1.000000
vn 0.000000 1.000000 0.000000
vn 0.000000 1.000000 0.000000
vn 0.000000 1.000000 0.000000
vn 0.000000 1.000000 0.000000
vn 0.000000 0.000000 -1.000000
vn 0.000000 0.000000 -1.000000
vn 0.000000 0.000000 -1.000000
vn 0.000000 0.000000 -1.000000
vn 0.000000 -1.000000 0.000000
vn 0.000000 -1.000000 0.000000
vn 0.000000 -1.000000 0.000000
vn 0.000000 -1.000000 0.000000
vn 1.000000 0.000000 0.000000
vn 1.000000 0.000000 0.000000
vn 1.000000 0.000000 0.000000
vn 1.000000 0.000000 0.000000
vn -1.000000 0.000000 0.000000
vn -1.000000 0.000000 0.000000
vn -1.000000 0.000000 0.000000
vn -1.000000 0.000000 0.000000
vn 0.000000 0.000000 1.000000
vn 0.000000 0.000000 1.000000
vn 0.000000 0.000000 1.000000
vn 0.000000 0.000000 1.000000
vn 1.000000 0.000000 0.000000
vn 1.000000 0.000000 0.000000
vn 1.000000 0.000000 0.000000
vn 1.000000 0.000000 0.000000
vn 0.000000 0.000000 -1.000000
vn 0.000000 0.000000 -1.000000
vn 0.000000 0.000000 -1.000000
vn 0.000000 0.000000 -1.000000
vn -1.000000 0.000000 0.000000
vn -1.000000 0.000000 0.000000
vn -1.000000 0.000000 0.000000
vn -1.000000 0.000000 0.000000
vn 0.000000 0.000000 -1.000000
vn 0.000000 0.000000 -1.000000
vn 0.000000 0.000000 -1.000000
vn 0.000000 0.000000 -1.000000
vn 1.000000 0.000000 0.000000
vn 1.000000 0.000000 0.000000
vn 1.000000 0.000000 0.000000
vn 1.000000 0.000000 0.000000
vn 0.000000 0.000000 1.000000
vn 0.000000 0.000000 1.000000
vn 0.000000 0.000000 1.000000
vn 0.000000 0.000000 1.000000
vn -1.000000 0.000000 0.000000
vn -1.000000 0.000000 0.000000
vn -1.000000 0.000000 0.000000
vn -1.000000 0.000000 0.000000
vn 0.000000 -1.000000 0.000000
vn 0.000000 -1.000000 0.000000
vn 0.000000 -1.000000 0.000000
vn 0.000000 -1.000000 0.000000
vn 0.000000 0.000000 -1.000000
vn 0.000000 0.000000 -1.000000
vn 0.000000 0.000000 -1.000000
vn 0.000000 0.000000 -1.000000
vn 0.000000 1.000000 0.000000
vn 0.000000 1.000000 0.000000
vn 0.000000 1.000000 0.000000
vn 0.000000 1.000000 0.000000
vn 0.000000 0.000000 1.000000
vn 0.000000 0.000000 1.000000
vn 0.000000 0.000000 1.000000
vn 0.000000 0.000000 1.000000
vn 0.000000 -1.000000 0.000000
vn 0.000000 -1.000000 0.000000
vn 0.000000 -1.000000 0.000000
vn 0.000000 -1.000000 0.000000
vn 0.000000 0.000000 1.000000
vn 0.000000 0.000000 1.000000
vn 0.000000 0.000000 1.000000
vn 0.000000 0.000000 1.000000
vn 0.000000 1.000000 0.000000
vn 0.000000 1.000000 0.000000
vn 0.000000 1.000000 0.000000
vn 0.000000 1.000000 0.000000
vn 0.000000 0.000000 -1.000000
vn 0.000000 0.000000 -1.000000
vn 0.000000 0.000000 -1.000000
vn 0.000000 0.000000 -1.000000
s off
g HealthIconMesh
usemtl initialShadingGroup
f 55/117/155 56/118/156 58/119/157 57/120/158
f 63/141/159 64/142/160 65/143/161 66/144/162
f 59/129/163 60/130/164 62/131/165 61/132/166
f 67/145/167 68/163/168 69/164/169 70/146/170
f 72/147/171 71/148/172 73/149/173 74/150/174
f 75/151/175 76/152/176 77/153/177 78/154/178
f 57/120/179 58/119/180 64/125/181 63/126/182
f 58/155/183 60/168/184 65/143/185 64/142/186
f 60/130/187 59/129/188 66/133/189 65/134/190
f 59/157/191 57/165/192 63/141/193 66/144/194
f 61/132/195 62/131/196 68/137/197 67/138/198
f 62/159/199 56/170/200 69/164/201 68/163/202
f 56/118/203 55/117/204 70/121/205 69/122/206
f 55/161/207 61/171/208 67/145/209 70/146/210
f 56/160/211 62/169/212 71/148/213 72/147/214
f 62/131/215 60/130/216 73/135/217 71/136/218
f 60/156/219 58/167/220 74/150/221 73/149/222
f 58/119/223 56/118/224 72/123/225 74/124/226
f 61/162/227 55/172/228 76/152/229 75/151/230
f 55/117/231 57/120/232 77/127/233 76/128/234
f 57/158/235 59/166/236 78/154/237 77/153/238
f 59/129/239 61/132/240 75/139/241 78/140/242
