# This file uses centimeters as units for non-parametric coordinates.

mtllib M_Hospital.mtl
g default
v -4.000000 6.000000 0.000000
v 4.000000 6.000000 0.000000
v -4.000000 10.000000 0.000000
v 4.000000 10.000000 0.000000
v -4.000000 10.000000 -4.000000
v 4.000000 10.000000 -4.000000
v -4.000000 6.000000 -4.000000
v 4.000000 6.000000 -4.000000
vt 0.332131 0.974671
vt 0.185863 0.974671
vt 0.332131 0.828402
vt 0.185863 0.828402
vt 0.332131 0.682133
vt 0.185863 0.682133
vt 0.332131 0.535865
vt 0.185863 0.535865
vt 0.039594 0.974671
vt 0.039594 0.828402
vt 0.478400 0.974671
vt 0.478400 0.828402
vn 0.000000 0.000000 1.000000
vn 0.000000 0.000000 1.000000
vn 0.000000 0.000000 1.000000
vn 0.000000 0.000000 1.000000
vn 0.000000 1.000000 0.000000
vn 0.000000 1.000000 0.000000
vn 0.000000 1.000000 0.000000
vn 0.000000 1.000000 0.000000
vn 0.000000 0.000000 -1.000000
vn 0.000000 0.000000 -1.000000
vn 0.000000 0.000000 -1.000000
vn 0.000000 0.000000 -1.000000
vn 1.000000 0.000000 0.000000
vn 1.000000 0.000000 0.000000
vn 1.000000 0.000000 0.000000
vn 1.000000 0.000000 0.000000
vn -1.000000 0.000000 0.000000
vn -1.000000 0.000000 0.000000
vn -1.000000 0.000000 0.000000
vn -1.000000 0.000000 0.000000
s off
g pCube2
usemtl initialShadingGroup
f 1/1/1 2/2/2 4/4/3 3/3/4
f 3/3/5 4/4/6 6/6/7 5/5/8
f 5/5/9 6/6/10 8/8/11 7/7/12
f 2/2/13 8/9/14 6/10/15 4/4/16
f 7/11/17 1/1/18 3/3/19 5/12/20
g default
v -5.000000 0.000000 5.000000
v 5.000000 0.000000 5.000000
v -5.000000 6.000000 5.000000
v 5.000000 6.000000 5.000000
v -5.000000 6.000000 -5.000000
v 5.000000 6.000000 -5.000000
v -5.000000 0.000000 -5.000000
v 5.000000 0.000000 -5.000000
v -4.800000 6.000000 4.800000
v 4.800000 6.000000 4.800000
v 4.800000 6.000000 -4.800000
v -4.800000 6.000000 -4.800000
v -5.000000 6.382705 5.000000
v 5.000000 6.382705 5.000000
v 4.800000 6.382705 4.800000
v -4.800000 6.382705 4.800000
v 5.000000 6.382705 -5.000000
v 4.800000 6.382705 -4.800000
v -5.000000 6.382705 -5.000000
v -4.800000 6.382705 -4.800000
vt 0.775432 0.259142
vt 0.978576 0.259142
vt 0.978576 0.462287
vt 0.775432 0.462287
vt 0.978576 0.475244
vt 0.775432 0.475244
vt 0.568552 0.259142
vt 0.771697 0.259142
vt 0.771697 0.462287
vt 0.568552 0.462287
vt 0.771697 0.475244
vt 0.568552 0.475244
vt 0.797089 0.672693
vt 0.797089 0.477674
vt 0.810046 0.477674
vt 0.810046 0.672693
vt 0.832686 0.672693
vt 0.832686 0.477674
vt 0.845643 0.477674
vt 0.845643 0.672693
vt 0.579948 0.672693
vt 0.579948 0.477674
vt 0.774966 0.477674
vt 0.774966 0.672693
vt 0.372180 0.680819
vt 0.372180 0.477674
vt 0.376243 0.481737
vt 0.376243 0.676756
vt 0.575325 0.477674
vt 0.571262 0.481737
vt 0.575325 0.680819
vt 0.571262 0.676756
vt 0.372180 0.040610
vt 0.575325 0.040610
vt 0.575325 0.243755
vt 0.372180 0.243755
vt 0.575325 0.256712
vt 0.372180 0.256712
vt 0.579948 0.053567
vt 0.783092 0.053567
vt 0.783092 0.256712
vt 0.579948 0.256712
vt 0.579948 0.040610
vt 0.783092 0.040610
vt 0.792248 0.477675
vt 0.792248 0.672693
vt 0.779290 0.672693
vt 0.779290 0.477675
vt 0.814887 0.672693
vt 0.814887 0.477674
vt 0.827845 0.477674
vt 0.827845 0.672693
vn 0.000000 0.000000 1.000000
vn 0.000000 0.000000 1.000000
vn 0.000000 0.000000 1.000000
vn 0.000000 0.000000 1.000000
vn 0.000000 1.000000 0.000000
vn 0.000000 1.000000 0.000000
vn 0.000000 1.000000 0.000000
vn 0.000000 1.000000 0.000000
vn 0.000000 0.000000 -1.000000
vn 0.000000 0.000000 -1.000000
vn 0.000000 0.000000 -1.000000
vn 0.000000 0.000000 -1.000000
vn 1.000000 0.000000 0.000000
vn 1.000000 0.000000 0.000000
vn 1.000000 0.000000 0.000000
vn 1.000000 0.000000 0.000000
vn -1.000000 0.000000 0.000000
vn -1.000000 0.000000 0.000000
vn -1.000000 0.000000 0.000000
vn -1.000000 0.000000 0.000000
vn 0.000000 1.000000 -0.000001
vn 0.000000 1.000000 -0.000001
vn 0.000000 1.000000 -0.000001
vn 0.000000 1.000000 -0.000001
vn 0.000000 1.000000 0.000001
vn 0.000000 1.000000 0.000001
vn 0.000000 1.000000 0.000001
vn 0.000000 1.000000 0.000001
vn 0.000000 0.000000 1.000000
vn 0.000000 0.000000 1.000000
vn 0.000000 0.000000 1.000000
vn 0.000000 0.000000 1.000000
vn 0.000000 0.000000 -1.000000
vn 0.000000 0.000000 -1.000000
vn 0.000000 0.000000 -1.000000
vn 0.000000 0.000000 -1.000000
vn 1.000000 0.000000 0.000000
vn 1.000000 0.000000 0.000000
vn 1.000000 0.000000 0.000000
vn 1.000000 0.000000 0.000000
vn -1.000000 0.000000 0.000000
vn -1.000000 0.000000 0.000000
vn -1.000000 0.000000 0.000000
vn -1.000000 0.000000 0.000000
vn 0.000000 0.000000 -1.000000
vn 0.000000 0.000000 -1.000000
vn 0.000000 0.000000 -1.000000
vn 0.000000 0.000000 -1.000000
vn 0.000000 0.000000 1.000000
vn 0.000000 0.000000 1.000000
vn 0.000000 0.000000 1.000000
vn 0.000000 0.000000 1.000000
vn -1.000000 0.000000 0.000000
vn -1.000000 0.000000 0.000000
vn -1.000000 0.000000 0.000000
vn -1.000000 0.000000 0.000000
vn 1.000000 0.000000 0.000000
vn 1.000000 0.000000 0.000000
vn 1.000000 0.000000 0.000000
vn 1.000000 0.000000 0.000000
s off
g pCube1
usemtl initialShadingGroup
f 9/45/21 10/46/22 12/47/23 11/48/24
f 17/33/25 18/34/26 19/35/27 20/36/28
f 13/51/29 14/52/30 16/53/31 15/54/32
f 10/13/33 16/14/34 14/15/35 12/16/36
f 15/19/37 9/20/38 11/21/39 13/22/40
s 1
f 21/37/41 22/38/42 23/39/43 24/40/44
f 22/38/42 25/41/45 26/42/46 23/39/43
f 25/41/45 27/43/47 28/44/48 26/42/46
f 27/43/47 21/37/41 24/40/44 28/44/48
s off
f 11/48/49 12/47/50 22/49/51 21/50/52
f 18/57/53 17/58/54 24/59/55 23/60/56
f 12/16/57 14/15/58 25/17/59 22/18/60
f 19/25/61 18/26/62 23/27/63 26/28/64
f 14/52/65 13/51/66 27/55/67 25/56/68
f 20/61/69 19/62/70 26/63/71 28/64/72
f 13/22/73 11/21/74 21/23/75 27/24/76
f 17/29/77 20/30/78 28/31/79 24/32/80
g default
v -2.282565 5.920059 2.718648
v -2.648590 5.920059 2.352623
v -3.148590 5.920059 2.218648
v -3.648590 5.920059 2.352623
v -4.014615 5.920059 2.718648
v -4.148590 5.920059 3.218648
v -4.014615 5.920059 3.718648
v -3.648590 5.920059 4.084674
v -3.148590 5.920059 4.218648
v -2.648590 5.920059 4.084674
v -2.282565 5.920059 3.718648
v -2.148590 5.920059 3.218648
v -2.282565 6.320059 2.718648
v -2.648590 6.320059 2.352623
v -3.148590 6.320059 2.218648
v -3.648590 6.320059 2.352623
v -4.014615 6.320059 2.718648
v -4.148590 6.320059 3.218648
v -4.014615 6.320059 3.718648
v -3.648590 6.320059 4.084674
v -3.148590 6.320059 4.218648
v -2.648590 6.320059 4.084674
v -2.282565 6.320059 3.718648
v -2.148590 6.320059 3.218648
v -3.148590 5.920059 3.218648
v -3.148590 6.320059 3.218648
vt 0.236914 0.070414
vt 0.194897 0.028396
vt 0.137500 0.013017
vt 0.080103 0.028396
vt 0.038086 0.070414
vt 0.022706 0.127811
vt 0.038086 0.185208
vt 0.080103 0.227225
vt 0.137500 0.242605
vt 0.194897 0.227225
vt 0.236914 0.185208
vt 0.252294 0.127811
vt 0.045665 0.242605
vt 0.060971 0.242605
vt 0.076277 0.242605
vt 0.091582 0.242605
vt 0.106888 0.242605
vt 0.122194 0.242605
vt 0.137500 0.242605
vt 0.152806 0.242605
vt 0.168112 0.242605
vt 0.183417 0.242605
vt 0.198723 0.242605
vt 0.214029 0.242605
vt 0.229335 0.242605
vt 0.045665 0.518800
vt 0.060971 0.518800
vt 0.076277 0.518800
vt 0.091582 0.518800
vt 0.106888 0.518800
vt 0.122194 0.518800
vt 0.137500 0.518800
vt 0.152806 0.518800
vt 0.168112 0.518800
vt 0.183417 0.518800
vt 0.198723 0.518800
vt 0.214029 0.518800
vt 0.229335 0.518800
vt 0.726200 0.766578
vt 0.684183 0.724561
vt 0.626786 0.709181
vt 0.569389 0.724561
vt 0.527371 0.766578
vt 0.511992 0.823975
vt 0.527371 0.881372
vt 0.569389 0.923389
vt 0.626786 0.938769
vt 0.684183 0.923389
vt 0.726200 0.881372
vt 0.741580 0.823975
vt 0.137500 0.123219
vt 0.626786 0.819383
vn 0.707107 0.000000 -0.707107
vn 0.707107 0.000000 -0.707107
vn 0.707107 0.000000 -0.707107
vn 0.707107 0.000000 -0.707107
vn 0.258819 0.000000 -0.965926
vn 0.258819 0.000000 -0.965926
vn 0.258819 0.000000 -0.965926
vn 0.258819 0.000000 -0.965926
vn -0.258819 0.000000 -0.965926
vn -0.258819 0.000000 -0.965926
vn -0.258819 0.000000 -0.965926
vn -0.258819 0.000000 -0.965926
vn -0.707107 0.000000 -0.707107
vn -0.707107 0.000000 -0.707107
vn -0.707107 0.000000 -0.707107
vn -0.707107 0.000000 -0.707107
vn -0.965926 0.000000 -0.258819
vn -0.965926 0.000000 -0.258819
vn -0.965926 0.000000 -0.258819
vn -0.965926 0.000000 -0.258819
vn -0.965926 0.000000 0.258819
vn -0.965926 0.000000 0.258819
vn -0.965926 0.000000 0.258819
vn -0.965926 0.000000 0.258819
vn -0.707107 0.000000 0.707107
vn -0.707107 0.000000 0.707107
vn -0.707107 0.000000 0.707107
vn -0.707107 0.000000 0.707107
vn -0.258819 0.000000 0.965926
vn -0.258819 0.000000 0.965926
vn -0.258819 0.000000 0.965926
vn -0.258819 0.000000 0.965926
vn 0.258819 0.000000 0.965926
vn 0.258819 0.000000 0.965926
vn 0.258819 0.000000 0.965926
vn 0.258819 0.000000 0.965926
vn 0.707107 0.000000 0.707107
vn 0.707107 0.000000 0.707107
vn 0.707107 0.000000 0.707107
vn 0.707107 0.000000 0.707107
vn 0.965926 0.000000 0.258819
vn 0.965926 0.000000 0.258819
vn 0.965926 0.000000 0.258819
vn 0.965926 0.000000 0.258819
vn 0.965926 0.000000 -0.258819
vn 0.965926 0.000000 -0.258819
vn 0.965926 0.000000 -0.258819
vn 0.965926 0.000000 -0.258819
vn 0.000000 -1.000000 0.000000
vn 0.000000 -1.000000 0.000000
vn 0.000000 -1.000000 0.000000
vn 0.000000 -1.000000 0.000000
vn 0.000000 -1.000000 0.000000
vn 0.000000 -1.000000 0.000000
vn 0.000000 -1.000000 0.000000
vn 0.000000 -1.000000 0.000000
vn 0.000000 -1.000000 0.000000
vn 0.000000 -1.000000 0.000000
vn 0.000000 -1.000000 0.000000
vn 0.000000 -1.000000 0.000000
vn 0.000000 -1.000000 0.000000
vn 0.000000 1.000000 0.000000
vn 0.000000 1.000000 0.000000
vn 0.000000 1.000000 0.000000
vn 0.000000 1.000000 0.000000
vn 0.000000 1.000000 0.000000
vn 0.000000 1.000000 0.000000
vn 0.000000 1.000000 0.000000
vn 0.000000 1.000000 0.000000
vn 0.000000 1.000000 0.000000
vn 0.000000 1.000000 0.000000
vn 0.000000 1.000000 0.000000
vn 0.000000 1.000000 0.000000
vn 0.000000 1.000000 0.000000
s off
g pCylinder1
usemtl initialShadingGroup
f 29/77/81 30/78/82 42/91/83 41/90/84
f 30/78/85 31/79/86 43/92/87 42/91/88
f 31/79/89 32/80/90 44/93/91 43/92/92
f 32/80/93 33/81/94 45/94/95 44/93/96
f 33/81/97 34/82/98 46/95/99 45/94/100
f 34/82/101 35/83/102 47/96/103 46/95/104
f 35/83/105 36/84/106 48/97/107 47/96/108
f 36/84/109 37/85/110 49/98/111 48/97/112
f 37/85/113 38/86/114 50/99/115 49/98/116
f 38/86/117 39/87/118 51/100/119 50/99/120
f 39/87/121 40/88/122 52/101/123 51/100/124
f 40/88/125 29/89/126 41/102/127 52/101/128
s 1
f 30/66/129 29/65/130 53/115/131
f 31/67/132 30/66/129 53/115/131
f 32/68/133 31/67/132 53/115/131
f 33/69/134 32/68/133 53/115/131
f 34/70/135 33/69/134 53/115/131
f 35/71/136 34/70/135 53/115/131
f 36/72/137 35/71/136 53/115/131
f 37/73/138 36/72/137 53/115/131
f 38/74/139 37/73/138 53/115/131
f 39/75/140 38/74/139 53/115/131
f 40/76/141 39/75/140 53/115/131
f 29/65/130 40/76/141 53/115/131
s 2
f 41/113/142 42/112/143 54/116/144
f 42/112/143 43/111/145 54/116/144
f 43/111/145 44/110/146 54/116/144
f 44/110/146 45/109/147 54/116/144
f 45/109/147 46/108/148 54/116/144
f 46/108/148 47/107/149 54/116/144
f 47/107/149 48/106/150 54/116/144
f 48/106/150 49/105/151 54/116/144
f 49/105/151 50/104/152 54/116/144
f 50/104/152 51/103/153 54/116/144
f 51/103/153 52/114/154 54/116/144
f 52/114/154 41/113/142 54/116/144
