# This file uses centimeters as units for non-parametric coordinates.

mtllib M_StreetFork_Build2.mtl
g default
v -1.966083 4.233683 -3.069326
v -2.507279 4.774879 -3.069326
v -3.272646 4.774879 -3.069326
v -3.813842 4.233683 -3.069326
v -3.813842 3.468316 -3.069326
v -3.272646 2.927120 -3.069326
v -2.507279 2.927120 -3.069326
v -1.966083 3.468316 -3.069326
v -1.966083 4.233683 -2.669326
v -2.507279 4.774879 -2.669326
v -3.272646 4.774879 -2.669326
v -3.813842 4.233683 -2.669326
v -3.813842 3.468316 -2.669326
v -3.272646 2.927120 -2.669326
v -2.507279 2.927120 -2.669326
v -1.966083 3.468316 -2.669326
v -2.889962 3.850999 -3.069326
v -2.889962 3.850999 -2.669326
v -2.748541 0.985494 -3.010747
v -2.889962 0.985494 -3.069326
v -3.031384 0.985494 -3.010747
v -3.089962 0.985494 -2.869326
v -3.031384 0.985494 -2.727904
v -2.889962 0.985494 -2.669326
v -2.748541 0.985494 -2.727904
v -2.689962 0.985494 -2.869326
v -2.748541 2.985494 -3.010747
v -2.889962 2.985494 -3.069326
v -3.031384 2.985494 -3.010747
v -3.089962 2.985494 -2.869326
v -3.031384 2.985494 -2.727904
v -2.889962 2.985494 -2.669326
v -2.748541 2.985494 -2.727904
v -2.689962 2.985494 -2.869326
v -2.889962 0.985494 -2.869326
v -2.889962 2.985494 -2.869326
vt 0.613815 0.227982
vt 0.613815 0.104285
vt 0.678462 0.104285
vt 0.678462 0.227982
vt 0.613815 0.016817
vt 0.678462 0.016817
vt 0.613815 0.315449
vt 0.678462 0.315449
vt 0.609784 0.104285
vt 0.609784 0.227982
vt 0.545137 0.227982
vt 0.545137 0.104285
vt 0.609784 0.315449
vt 0.545137 0.315449
vt 0.609784 0.016817
vt 0.545137 0.016817
vt 0.392519 0.016817
vt 0.415375 0.016817
vt 0.415375 0.340054
vt 0.392519 0.340054
vt 0.438231 0.016817
vt 0.438231 0.340054
vt 0.494264 0.016817
vt 0.517120 0.016817
vt 0.517120 0.340054
vt 0.494264 0.340054
vt 0.539976 0.016817
vt 0.539976 0.340054
vt 0.690121 0.318054
vt 0.690121 0.441751
vt 0.625473 0.441751
vt 0.625473 0.318054
vt 0.556822 0.441751
vt 0.556822 0.318054
vt 0.621470 0.318054
vt 0.621470 0.441751
vt 0.520495 0.342658
vt 0.543351 0.352126
vt 0.520495 0.374982
vt 0.552819 0.374982
vt 0.497639 0.352126
vt 0.543351 0.397838
vt 0.488172 0.374982
vt 0.520495 0.407306
vt 0.497639 0.397838
vt 0.474700 0.397838
vt 0.451844 0.407306
vt 0.451844 0.374982
vt 0.428988 0.397838
vt 0.484168 0.374982
vt 0.419521 0.374982
vt 0.474700 0.352126
vt 0.428988 0.352126
vt 0.451844 0.342658
vt 0.893658 0.016817
vt 0.981124 0.104285
vt 0.831809 0.166133
vt 0.981124 0.227982
vt 0.769960 0.016817
vt 0.893658 0.315449
vt 0.682493 0.104285
vt 0.769960 0.315449
vt 0.682493 0.227982
vt 0.992755 0.529218
vt 0.905289 0.616685
vt 0.843440 0.467369
vt 0.781591 0.616685
vt 0.992755 0.405521
vt 0.694124 0.529218
vt 0.905289 0.318054
vt 0.694124 0.405521
vt 0.781591 0.318054
vt 0.388503 0.340054
vt 0.365647 0.340054
vt 0.365647 0.016818
vt 0.388503 0.016818
vt 0.342791 0.340054
vt 0.342791 0.016818
vt 0.443391 0.016817
vt 0.466248 0.016817
vt 0.466248 0.340054
vt 0.443391 0.340054
vt 0.489104 0.016817
vt 0.489104 0.340054
vn 0.707107 0.707107 0.000000
vn 0.707107 0.707107 0.000000
vn 0.707107 0.707107 0.000000
vn 0.707107 0.707107 0.000000
vn 0.000000 1.000000 0.000000
vn 0.000000 1.000000 0.000000
vn 0.000000 1.000000 0.000000
vn 0.000000 1.000000 0.000000
vn -0.707107 0.707107 0.000000
vn -0.707107 0.707107 0.000000
vn -0.707107 0.707107 0.000000
vn -0.707107 0.707107 0.000000
vn -1.000000 0.000000 0.000000
vn -1.000000 0.000000 0.000000
vn -1.000000 0.000000 0.000000
vn -1.000000 0.000000 0.000000
vn -0.707107 -0.707107 0.000000
vn -0.707107 -0.707107 0.000000
vn -0.707107 -0.707107 0.000000
vn -0.707107 -0.707107 0.000000
vn 0.000000 -1.000000 0.000000
vn 0.000000 -1.000000 0.000000
vn 0.000000 -1.000000 0.000000
vn 0.000000 -1.000000 0.000000
vn 0.707107 -0.707107 0.000000
vn 0.707107 -0.707107 0.000000
vn 0.707107 -0.707107 0.000000
vn 0.707107 -0.707107 0.000000
vn 1.000000 0.000000 0.000000
vn 1.000000 0.000000 0.000000
vn 1.000000 0.000000 0.000000
vn 1.000000 0.000000 0.000000
vn 0.000000 0.000000 -1.000000
vn 0.000000 0.000000 -1.000000
vn 0.000000 0.000000 -1.000000
vn 0.000000 0.000000 -1.000000
vn 0.000000 0.000000 -1.000000
vn 0.000000 0.000000 -1.000000
vn 0.000000 0.000000 -1.000000
vn 0.000000 0.000000 -1.000000
vn 0.000000 0.000000 -1.000000
vn 0.000000 0.000000 1.000000
vn 0.000000 0.000000 1.000000
vn 0.000000 0.000000 1.000000
vn -0.000000 0.000000 1.000000
vn -0.000000 0.000000 1.000000
vn 0.000000 0.000000 1.000000
vn -0.000000 0.000000 1.000000
vn 0.000000 0.000000 1.000000
vn 0.000000 0.000000 1.000000
vn 0.707107 0.000000 -0.707107
vn 0.000000 0.000000 -1.000000
vn 0.000000 0.000000 -1.000000
vn 0.707107 0.000000 -0.707107
vn -0.707107 0.000000 -0.707107
vn -0.707107 0.000000 -0.707107
vn -1.000000 0.000000 0.000000
vn -1.000000 0.000000 0.000000
vn -0.707107 0.000000 0.707107
vn -0.707107 0.000000 0.707107
vn 0.000000 0.000000 1.000000
vn 0.000000 0.000000 1.000000
vn 0.707107 0.000000 0.707107
vn 0.707107 0.000000 0.707107
vn 1.000000 0.000000 0.000000
vn 1.000000 0.000000 0.000000
vn 0.000000 -1.000000 0.000000
vn 0.000000 -1.000000 0.000000
vn 0.000000 -1.000000 0.000000
vn 0.000000 -1.000000 0.000000
vn 0.000000 -1.000000 0.000000
vn 0.000000 -1.000000 0.000000
vn 0.000000 -1.000000 0.000000
vn 0.000000 -1.000000 0.000000
vn 0.000000 -1.000000 0.000000
vn 0.000000 1.000000 0.000000
vn 0.000000 1.000000 0.000000
vn 0.000000 1.000000 0.000000
vn 0.000000 1.000000 -0.000001
vn 0.000000 1.000000 -0.000001
vn 0.000000 1.000000 0.000000
vn 0.000000 1.000000 0.000000
vn 0.000000 1.000000 0.000001
vn 0.000000 1.000000 0.000001
s off
g pCylinder7
usemtl initialShadingGroup
f 1/10/1 2/13/2 10/14/3 9/11/4
f 2/29/5 3/30/6 11/31/7 10/32/8
f 3/7/9 4/1/10 12/4/11 11/8/12
f 4/1/13 5/2/14 13/3/15 12/4/16
f 5/2/17 6/5/18 14/6/19 13/3/20
f 6/33/21 7/34/22 15/35/23 14/36/24
f 7/15/25 8/9/26 16/12/27 15/16/28
f 8/9/29 1/10/30 9/11/31 16/12/32
s 1
f 2/55/33 1/56/34 17/57/35
f 3/59/36 2/55/33 17/57/35
f 4/61/37 3/59/36 17/57/35
f 5/63/38 4/61/37 17/57/35
f 6/62/39 5/63/38 17/57/35
f 7/60/40 6/62/39 17/57/35
f 8/58/41 7/60/40 17/57/35
f 1/56/34 8/58/41 17/57/35
s 2
f 9/64/42 10/65/43 18/66/44
f 10/65/43 11/67/45 18/66/44
f 11/67/45 12/69/46 18/66/44
f 12/69/46 13/71/47 18/66/44
f 13/71/47 14/72/48 18/66/44
f 14/72/48 15/70/49 18/66/44
f 15/70/49 16/68/50 18/66/44
f 16/68/50 9/64/42 18/66/44
s 3
f 19/73/51 20/74/52 28/75/53 27/76/54
f 20/74/52 21/77/55 29/78/56 28/75/53
f 21/17/55 22/18/57 30/19/58 29/20/56
f 22/18/57 23/21/59 31/22/60 30/19/58
f 23/79/59 24/80/61 32/81/62 31/82/60
f 24/80/61 25/83/63 33/84/64 32/81/62
f 25/23/63 26/24/65 34/25/66 33/26/64
f 26/24/65 19/27/51 27/28/54 34/25/66
s 4
f 20/37/67 19/38/68 35/39/69
f 21/41/70 20/37/67 35/39/69
f 22/43/71 21/41/70 35/39/69
f 23/45/72 22/43/71 35/39/69
f 24/44/73 23/45/72 35/39/69
f 25/42/74 24/44/73 35/39/69
f 26/40/75 25/42/74 35/39/69
f 19/38/68 26/40/75 35/39/69
s 5
f 27/46/76 28/47/77 36/48/78
f 28/47/77 29/49/79 36/48/78
f 29/49/79 30/51/80 36/48/78
f 30/51/80 31/53/81 36/48/78
f 31/53/81 32/54/82 36/48/78
f 32/54/82 33/52/83 36/48/78
f 33/52/83 34/50/84 36/48/78
f 34/50/84 27/46/76 36/48/78
g default
v 3.807732 4.233683 2.832674
v 3.266535 4.774879 2.832674
v 2.501169 4.774879 2.832674
v 1.959973 4.233683 2.832674
v 1.959973 3.468316 2.832674
v 2.501169 2.927120 2.832674
v 3.266536 2.927120 2.832674
v 3.807732 3.468316 2.832674
v 3.807732 4.233683 3.232674
v 3.266535 4.774879 3.232674
v 2.501169 4.774879 3.232674
v 1.959973 4.233683 3.232674
v 1.959973 3.468316 3.232674
v 2.501169 2.927120 3.232674
v 3.266536 2.927120 3.232674
v 3.807732 3.468316 3.232674
v 2.883852 3.850999 2.832674
v 2.883852 3.850999 3.232674
v 3.025273 0.985494 2.891253
v 2.883852 0.985494 2.832674
v 2.742431 0.985494 2.891253
v 2.683852 0.985494 3.032674
v 2.742431 0.985494 3.174095
v 2.883852 0.985494 3.232674
v 3.025273 0.985494 3.174095
v 3.083852 0.985494 3.032674
v 3.025273 2.985494 2.891253
v 2.883852 2.985494 2.832674
v 2.742431 2.985494 2.891253
v 2.683852 2.985494 3.032674
v 2.742431 2.985494 3.174095
v 2.883852 2.985494 3.232674
v 3.025273 2.985494 3.174095
v 3.083852 2.985494 3.032674
v 2.883852 0.985494 3.032674
v 2.883852 2.985494 3.032674
vt 0.613815 0.227982
vt 0.613815 0.104285
vt 0.678462 0.104285
vt 0.678462 0.227982
vt 0.613815 0.016817
vt 0.678462 0.016817
vt 0.613815 0.315449
vt 0.678462 0.315449
vt 0.609784 0.104285
vt 0.609784 0.227982
vt 0.545137 0.227982
vt 0.545137 0.104285
vt 0.609784 0.315449
vt 0.545137 0.315449
vt 0.609784 0.016817
vt 0.545137 0.016817
vt 0.392519 0.016817
vt 0.415375 0.016817
vt 0.415375 0.340054
vt 0.392519 0.340054
vt 0.438231 0.016817
vt 0.438231 0.340054
vt 0.494264 0.016817
vt 0.517120 0.016817
vt 0.517120 0.340054
vt 0.494264 0.340054
vt 0.539976 0.016817
vt 0.539976 0.340054
vt 0.690121 0.318054
vt 0.690121 0.441751
vt 0.625473 0.441751
vt 0.625473 0.318054
vt 0.556822 0.441751
vt 0.556822 0.318054
vt 0.621470 0.318054
vt 0.621470 0.441751
vt 0.520495 0.342658
vt 0.543351 0.352126
vt 0.520495 0.374982
vt 0.552819 0.374982
vt 0.497639 0.352126
vt 0.543351 0.397838
vt 0.488172 0.374982
vt 0.520495 0.407306
vt 0.497639 0.397838
vt 0.474700 0.397838
vt 0.451844 0.407306
vt 0.451844 0.374982
vt 0.428988 0.397838
vt 0.484168 0.374982
vt 0.419521 0.374982
vt 0.474700 0.352126
vt 0.428988 0.352126
vt 0.451844 0.342658
vt 0.893658 0.016817
vt 0.981124 0.104285
vt 0.831809 0.166133
vt 0.981124 0.227982
vt 0.769960 0.016817
vt 0.893658 0.315449
vt 0.682493 0.104285
vt 0.769960 0.315449
vt 0.682493 0.227982
vt 0.992755 0.529218
vt 0.905289 0.616685
vt 0.843440 0.467369
vt 0.781591 0.616685
vt 0.992755 0.405521
vt 0.694124 0.529218
vt 0.905289 0.318054
vt 0.694124 0.405521
vt 0.781591 0.318054
vt 0.388503 0.340054
vt 0.365647 0.340054
vt 0.365647 0.016818
vt 0.388503 0.016818
vt 0.342791 0.340054
vt 0.342791 0.016818
vt 0.443391 0.016817
vt 0.466248 0.016817
vt 0.466248 0.340054
vt 0.443391 0.340054
vt 0.489104 0.016817
vt 0.489104 0.340054
vn 0.707107 0.707107 0.000000
vn 0.707107 0.707107 0.000000
vn 0.707107 0.707107 0.000000
vn 0.707107 0.707107 0.000000
vn 0.000000 1.000000 0.000000
vn 0.000000 1.000000 0.000000
vn 0.000000 1.000000 0.000000
vn 0.000000 1.000000 0.000000
vn -0.707107 0.707107 0.000000
vn -0.707107 0.707107 0.000000
vn -0.707107 0.707107 0.000000
vn -0.707107 0.707107 0.000000
vn -1.000000 0.000000 0.000000
vn -1.000000 0.000000 0.000000
vn -1.000000 0.000000 0.000000
vn -1.000000 0.000000 0.000000
vn -0.707107 -0.707107 0.000000
vn -0.707107 -0.707107 0.000000
vn -0.707107 -0.707107 0.000000
vn -0.707107 -0.707107 0.000000
vn 0.000000 -1.000000 0.000000
vn 0.000000 -1.000000 0.000000
vn 0.000000 -1.000000 0.000000
vn 0.000000 -1.000000 0.000000
vn 0.707107 -0.707107 0.000000
vn 0.707107 -0.707107 0.000000
vn 0.707107 -0.707107 0.000000
vn 0.707107 -0.707107 0.000000
vn 1.000000 0.000000 0.000000
vn 1.000000 0.000000 0.000000
vn 1.000000 0.000000 0.000000
vn 1.000000 0.000000 0.000000
vn 0.000000 0.000000 -1.000000
vn 0.000000 0.000000 -1.000000
vn 0.000000 0.000000 -1.000000
vn 0.000000 0.000000 -1.000000
vn 0.000000 0.000000 -1.000000
vn 0.000000 0.000000 -1.000000
vn 0.000000 0.000000 -1.000000
vn 0.000000 0.000000 -1.000000
vn 0.000000 0.000000 -1.000000
vn 0.000000 0.000000 1.000000
vn 0.000000 0.000000 1.000000
vn 0.000000 0.000000 1.000000
vn -0.000000 0.000000 1.000000
vn -0.000000 0.000000 1.000000
vn 0.000000 0.000000 1.000000
vn -0.000000 0.000000 1.000000
vn 0.000000 0.000000 1.000000
vn 0.000000 0.000000 1.000000
vn 0.707107 0.000000 -0.707107
vn 0.000000 0.000000 -1.000000
vn 0.000000 0.000000 -1.000000
vn 0.707107 0.000000 -0.707107
vn -0.707107 0.000000 -0.707107
vn -0.707107 0.000000 -0.707107
vn -1.000000 0.000000 0.000000
vn -1.000000 0.000000 0.000000
vn -0.707107 0.000000 0.707107
vn -0.707107 0.000000 0.707107
vn 0.000000 0.000000 1.000000
vn 0.000000 0.000000 1.000000
vn 0.707107 0.000000 0.707107
vn 0.707107 0.000000 0.707107
vn 1.000000 0.000000 0.000000
vn 1.000000 0.000000 0.000000
vn 0.000000 -1.000000 0.000000
vn 0.000000 -1.000000 0.000000
vn 0.000000 -1.000000 0.000000
vn 0.000000 -1.000000 0.000000
vn 0.000000 -1.000000 0.000000
vn 0.000000 -1.000000 0.000000
vn 0.000000 -1.000000 0.000000
vn 0.000000 -1.000000 0.000000
vn 0.000000 -1.000000 0.000000
vn 0.000000 1.000000 0.000000
vn 0.000000 1.000000 0.000000
vn 0.000000 1.000000 0.000000
vn 0.000000 1.000000 -0.000001
vn 0.000000 1.000000 -0.000001
vn 0.000000 1.000000 0.000000
vn 0.000000 1.000000 0.000000
vn 0.000000 1.000000 0.000001
vn 0.000000 1.000000 0.000001
s off
g pCylinder9
usemtl initialShadingGroup
f 37/94/85 38/97/86 46/98/87 45/95/88
f 38/113/89 39/114/90 47/115/91 46/116/92
f 39/91/93 40/85/94 48/88/95 47/92/96
f 40/85/97 41/86/98 49/87/99 48/88/100
f 41/86/101 42/89/102 50/90/103 49/87/104
f 42/117/105 43/118/106 51/119/107 50/120/108
f 43/99/109 44/93/110 52/96/111 51/100/112
f 44/93/113 37/94/114 45/95/115 52/96/116
s 1
f 38/139/117 37/140/118 53/141/119
f 39/143/120 38/139/117 53/141/119
f 40/145/121 39/143/120 53/141/119
f 41/147/122 40/145/121 53/141/119
f 42/146/123 41/147/122 53/141/119
f 43/144/124 42/146/123 53/141/119
f 44/142/125 43/144/124 53/141/119
f 37/140/118 44/142/125 53/141/119
s 2
f 45/148/126 46/149/127 54/150/128
f 46/149/127 47/151/129 54/150/128
f 47/151/129 48/153/130 54/150/128
f 48/153/130 49/155/131 54/150/128
f 49/155/131 50/156/132 54/150/128
f 50/156/132 51/154/133 54/150/128
f 51/154/133 52/152/134 54/150/128
f 52/152/134 45/148/126 54/150/128
s 3
f 55/157/135 56/158/136 64/159/137 63/160/138
f 56/158/136 57/161/139 65/162/140 64/159/137
f 57/101/139 58/102/141 66/103/142 65/104/140
f 58/102/141 59/105/143 67/106/144 66/103/142
f 59/163/143 60/164/145 68/165/146 67/166/144
f 60/164/145 61/167/147 69/168/148 68/165/146
f 61/107/147 62/108/149 70/109/150 69/110/148
f 62/108/149 55/111/135 63/112/138 70/109/150
s 4
f 56/121/151 55/122/152 71/123/153
f 57/125/154 56/121/151 71/123/153
f 58/127/155 57/125/154 71/123/153
f 59/129/156 58/127/155 71/123/153
f 60/128/157 59/129/156 71/123/153
f 61/126/158 60/128/157 71/123/153
f 62/124/159 61/126/158 71/123/153
f 55/122/152 62/124/159 71/123/153
s 5
f 63/130/160 64/131/161 72/132/162
f 64/131/161 65/133/163 72/132/162
f 65/133/163 66/135/164 72/132/162
f 66/135/164 67/137/165 72/132/162
f 67/137/165 68/138/166 72/132/162
f 68/138/166 69/136/167 72/132/162
f 69/136/167 70/134/168 72/132/162
f 70/134/168 63/130/160 72/132/162
g default
v -2.500000 0.500000 5.000000
v -2.500000 0.500000 -5.000000
v 2.500002 0.500000 5.000000
v 2.500002 0.500000 -5.000000
v -5.000000 0.500000 -2.500000
v -2.500000 0.500000 -2.500000
v 2.500002 0.500000 -2.500000
v 5.000000 0.500000 -2.500000
v -5.000000 0.500000 2.500002
v -2.500000 0.500000 2.500002
v 2.500002 0.500000 2.500002
v 5.000000 0.500000 2.500002
v -5.000000 1.000000 -2.500000
v -2.500000 1.000000 -2.500000
v -2.500000 1.000000 -5.000000
v -5.000000 1.000000 -5.000000
v 2.500002 1.000000 -2.500000
v 2.500002 1.000000 -5.000000
v 5.000000 1.000000 -2.500000
v 5.000000 1.000000 -5.000000
v -5.000000 1.000000 5.000000
v -2.500000 1.000000 5.000000
v -2.500000 1.000000 2.500002
v -5.000000 1.000000 2.500002
v 2.500002 1.000000 2.500002
v 5.000000 1.000000 2.500002
v 2.500002 1.000000 5.000000
v 5.000000 1.000000 5.000000
vt 0.892171 0.849737
vt 0.892171 0.643383
vt 0.933441 0.643383
vt 0.933441 0.849737
vt 0.844169 0.849737
vt 0.844169 0.643383
vt 0.885440 0.643383
vt 0.885440 0.849737
vt 0.748165 0.849737
vt 0.748165 0.643383
vt 0.789436 0.643383
vt 0.789436 0.849737
vt 0.604160 0.849737
vt 0.604160 0.643383
vt 0.645431 0.643383
vt 0.645431 0.849737
vt 0.163899 0.113196
vt 0.291687 0.113196
vt 0.291687 0.240984
vt 0.163899 0.240984
vt 0.169845 0.977670
vt 0.169845 0.838648
vt 0.447890 0.838648
vt 0.447890 0.977670
vt 0.169845 0.560603
vt 0.447890 0.560603
vt 0.030822 0.560603
vt 0.030822 0.838648
vt 0.169845 0.421581
vt 0.447890 0.421581
vt 0.586912 0.838648
vt 0.586912 0.560603
vt 0.009984 0.249151
vt 0.009984 0.121363
vt 0.137772 0.121363
vt 0.137772 0.249151
vt 0.172737 0.404533
vt 0.172737 0.276745
vt 0.300525 0.276745
vt 0.300525 0.404533
vt 0.168569 0.404533
vt 0.040781 0.404533
vt 0.040781 0.276745
vt 0.168569 0.276745
vt 0.940173 0.849737
vt 0.940173 0.643383
vt 0.981443 0.643383
vt 0.981443 0.849737
vt 0.796167 0.849737
vt 0.796167 0.643383
vt 0.837438 0.643383
vt 0.837438 0.849737
vt 0.741434 0.643383
vt 0.741434 0.849737
vt 0.700164 0.849737
vt 0.700164 0.643383
vt 0.693433 0.643383
vt 0.693433 0.849737
vt 0.652162 0.849737
vt 0.652162 0.643383
vn 0.000000 1.000000 0.000000
vn 0.000000 1.000000 0.000000
vn 0.000000 1.000000 0.000000
vn 0.000000 1.000000 0.000000
vn 0.000000 1.000000 0.000000
vn 0.000000 1.000000 0.000000
vn 0.000000 1.000000 0.000000
vn 0.000000 1.000000 0.000000
vn 0.000000 1.000000 0.000000
vn 0.000000 1.000000 0.000000
vn 0.000000 1.000000 0.000000
vn 0.000000 1.000000 0.000000
vn 0.000000 1.000000 0.000000
vn 0.000000 1.000000 0.000000
vn 0.000000 1.000000 0.000000
vn 0.000000 1.000000 0.000000
vn 0.000000 1.000000 0.000000
vn 0.000000 1.000000 0.000000
vn 0.000000 1.000000 0.000000
vn 0.000000 1.000000 0.000000
vn 0.000000 1.000000 0.000000
vn 0.000000 1.000000 0.000000
vn 0.000000 1.000000 0.000000
vn 0.000000 1.000000 0.000000
vn 0.000000 1.000000 0.000000
vn 0.000000 1.000000 0.000000
vn 0.000000 1.000000 0.000000
vn 0.000000 1.000000 0.000000
vn 0.000000 0.000000 1.000000
vn 0.000000 0.000000 1.000000
vn 0.000000 0.000000 1.000000
vn 0.000000 0.000000 1.000000
vn 1.000000 0.000000 0.000000
vn 1.000000 0.000000 0.000000
vn 1.000000 0.000000 0.000000
vn 1.000000 0.000000 0.000000
vn -1.000000 0.000000 0.000000
vn -1.000000 0.000000 0.000000
vn -1.000000 0.000000 0.000000
vn -1.000000 0.000000 0.000000
vn 0.000000 0.000000 1.000000
vn 0.000000 0.000000 1.000000
vn 0.000000 0.000000 1.000000
vn 0.000000 0.000000 1.000000
vn 1.000000 0.000000 0.000000
vn 1.000000 0.000000 0.000000
vn 1.000000 0.000000 0.000000
vn 1.000000 0.000000 0.000000
vn 0.000000 0.000000 -1.000000
vn 0.000000 0.000000 -1.000000
vn 0.000000 0.000000 -1.000000
vn 0.000000 0.000000 -1.000000
vn 0.000000 0.000000 -1.000000
vn 0.000000 0.000000 -1.000000
vn 0.000000 0.000000 -1.000000
vn 0.000000 0.000000 -1.000000
vn -1.000000 0.000000 0.000000
vn -1.000000 0.000000 0.000000
vn -1.000000 0.000000 0.000000
vn -1.000000 0.000000 0.000000
s off
g StreetFork
usemtl initialShadingGroup
f 85/185/169 86/186/170 87/187/171 88/188/172
s 1
f 74/189/173 78/190/174 79/191/175 76/192/176
s off
f 90/201/177 89/202/178 91/203/179 92/204/180
s 1
f 81/195/181 82/193/182 78/190/174 77/196/183
f 79/191/175 78/190/174 82/193/182 83/194/184
f 80/199/185 79/191/175 83/194/184 84/200/186
s off
f 93/205/187 94/206/188 95/207/189 96/208/190
s 1
f 83/194/184 82/193/182 73/197/191 75/198/192
s off
f 98/209/193 97/210/194 99/211/195 100/212/196
f 77/213/197 78/214/198 86/215/199 85/216/200
f 78/169/201 74/170/202 87/171/203 86/172/204
f 76/173/205 79/174/206 89/175/207 90/176/208
f 79/217/209 80/218/210 91/219/211 89/220/212
f 73/177/213 82/178/214 95/179/215 94/180/216
f 82/221/217 81/222/218 96/223/219 95/224/220
f 84/225/221 83/226/222 97/227/223 98/228/224
f 83/181/225 75/182/226 99/183/227 97/184/228
