# This file uses centimeters as units for non-parametric coordinates.

mtllib M_Building02Combined.mtl
g default
v 2.500000 0.000000 -2.500000
v -2.500000 0.000000 -2.500000
v 2.500000 0.000000 2.500000
v -2.500000 0.000000 2.500000
v 2.125037 7.899529 -2.500000
v 2.399529 7.625037 -2.500000
v 2.500000 7.250075 -2.500000
v 1.750075 8.000000 -2.500000
v 2.500000 7.250075 2.500000
v 2.399529 7.625038 2.500000
v 2.125037 7.899529 2.500000
v 1.750075 8.000000 2.500000
v -2.399529 7.625038 -2.500000
v -2.125037 7.899529 -2.500000
v -1.750075 8.000000 -2.500000
v -2.500000 7.250075 -2.500000
v -2.500000 7.250075 2.500000
v -1.750075 8.000000 2.500000
v -2.125037 7.899529 2.500000
v -2.399529 7.625037 2.500000
v 2.500000 0.000000 -1.000000
v 2.500000 7.250075 -1.000000
v 2.399529 7.625037 -1.000000
v 2.125037 7.899529 -1.000000
v 1.750075 8.000000 -1.000000
v -1.750075 8.000000 -1.000000
v -2.125037 7.899529 -1.000000
v -2.399529 7.625038 -1.000000
v -2.500000 7.250075 -1.000000
v -2.500000 0.000000 -1.000000
v 1.750075 9.542277 -1.000000
v -1.750075 9.542277 -1.000000
v 1.750075 9.542277 -2.500000
v -1.750075 9.542277 -2.500000
v -0.126825 6.784888 2.500000
v 0.084455 6.990016 -2.500000
vt 0.869615 0.218794
vt 0.588932 0.218794
vt 0.588932 0.001992
vt 0.869615 0.001992
vt 0.588932 0.311709
vt 0.869615 0.311709
vt 0.884132 0.218794
vt 0.884132 0.001992
vt 0.884132 0.311709
vt 0.894759 0.218794
vt 0.894759 0.001992
vt 0.894759 0.311709
vt 0.277604 0.684713
vt 0.277604 0.467911
vt 0.558288 0.467911
vt 0.558288 0.684713
vt 0.277604 0.374996
vt 0.558288 0.374996
vt 0.572804 0.467911
vt 0.572804 0.684713
vt 0.572804 0.374996
vt 0.583431 0.467911
vt 0.583431 0.684713
vt 0.583431 0.374996
vt 0.484222 0.781206
vt 0.484222 0.688291
vt 0.543931 0.688291
vt 0.543931 0.781206
vt 0.550620 0.781206
vt 0.550620 0.688291
vt 0.610329 0.688291
vt 0.610329 0.781206
vt 0.341453 0.311709
vt 0.341453 0.094907
vt 0.558264 0.094907
vt 0.558264 0.311709
vt 0.318226 0.094907
vt 0.318226 0.311709
vt 0.581490 0.094907
vt 0.581490 0.311709
vt 0.318226 0.001992
vt 0.341453 0.001992
vt 0.558264 0.001992
vt 0.581490 0.001992
vt 0.411141 0.688291
vt 0.411141 0.905102
vt 0.318226 0.905102
vt 0.318226 0.688291
vt 0.151413 0.272608
vt 0.288276 0.307819
vt 0.265050 0.311709
vt 0.305279 0.297192
vt 0.048239 0.311709
vt 0.311503 0.282676
vt 0.025012 0.307819
vt 0.265050 0.371417
vt 0.048239 0.371417
vt 0.311503 0.001992
vt 0.008009 0.297192
vt 0.001786 0.001992
vt 0.001786 0.282676
vt 0.164500 0.735334
vt 0.025012 0.692181
vt 0.048239 0.688291
vt 0.008009 0.702808
vt 0.265050 0.688291
vt 0.001786 0.717324
vt 0.288276 0.692181
vt 0.001786 0.998008
vt 0.305279 0.702808
vt 0.311503 0.998008
vt 0.311503 0.717324
vt 0.477532 0.688291
vt 0.477532 0.905102
vt 0.417824 0.905102
vt 0.417824 0.688291
vn 0.025919 0.999664 -0.000000
vn 0.035542 0.999368 0.000000
vn -0.035542 0.999368 -0.000000
vn -0.025919 0.999664 -0.000000
vn -0.999913 0.013175 0.000000
vn -1.000000 0.000000 -0.000000
vn -1.000000 0.000000 -0.000000
vn -0.999913 0.013175 0.000000
vn 1.000000 0.000000 0.000000
vn 1.000000 0.000000 0.000000
vn 0.999913 0.013175 -0.000000
vn 0.999913 0.013175 0.000000
vn 0.866025 0.500000 -0.000000
vn 0.866025 0.500000 -0.000000
vn 0.500000 0.866025 -0.000000
vn 0.500000 0.866025 -0.000000
vn -0.500000 0.866025 0.000000
vn -0.500000 0.866025 0.000000
vn -0.866025 0.500000 0.000000
vn -0.866025 0.500000 0.000000
vn 0.000000 0.000000 -1.000000
vn 0.000000 0.000000 -1.000000
vn 0.000000 0.000000 -1.000000
vn -0.000000 0.000000 1.000000
vn -0.000000 0.000000 1.000000
vn -0.000000 0.000000 1.000000
vn 1.000000 0.000000 0.000000
vn 0.999913 0.013175 -0.000000
vn 0.866025 0.500000 0.000000
vn 0.500000 0.866025 0.000000
vn 0.258820 0.965926 0.000000
vn 0.000000 1.000000 -0.000000
vn 0.000000 1.000000 -0.000000
vn 0.000000 1.000000 -0.000000
vn 0.000000 1.000000 -0.000000
vn -0.258820 0.965926 -0.000000
vn -0.500000 0.866025 0.000000
vn -0.866025 0.500000 0.000000
vn -0.999913 0.013175 -0.000000
vn -1.000000 0.000000 -0.000000
vn -0.000000 0.000000 1.000000
vn -0.000000 0.000000 1.000000
vn -0.000000 0.000000 1.000000
vn -0.000000 0.000000 1.000000
vn 1.000000 0.000000 0.000000
vn 1.000000 0.000000 0.000000
vn 1.000000 0.000000 0.000000
vn 1.000000 0.000000 0.000000
vn 0.000000 0.000000 -1.000000
vn 0.000000 0.000000 -1.000000
vn 0.000000 0.000000 -1.000000
vn 0.000000 0.000000 -1.000000
vn -1.000000 0.000000 -0.000000
vn -1.000000 0.000000 -0.000000
vn -1.000000 0.000000 -0.000000
vn -1.000000 0.000000 -0.000000
vn -0.000000 0.000000 1.000000
vn -0.000000 0.000000 1.000000
vn -0.000000 0.000000 1.000000
vn -0.000000 0.000000 1.000000
vn -0.000000 0.000000 1.000000
vn 0.000000 0.000000 1.000000
vn 0.000000 0.000000 1.000000
vn -0.000000 0.000000 1.000000
vn 0.000000 0.000000 -1.000000
vn 0.000000 0.000000 -1.000000
vn 0.000000 0.000000 -1.000000
vn 0.000000 0.000000 -1.000000
vn 0.000000 0.000000 -1.000000
vn 0.000000 0.000000 -1.000000
vn 0.000000 0.000000 -1.000000
vn 0.000000 0.000000 -1.000000
s 1
g pCube1
usemtl initialShadingGroup
f 12/33/1 25/34/2 26/35/3 18/36/4
f 29/1/5 30/2/6 4/3/7 17/4/8
f 3/13/9 21/14/10 22/15/11 9/16/12
f 22/15/11 23/19/13 10/20/14 9/16/12
f 23/19/13 24/22/15 11/23/16 10/20/14
f 24/37/15 25/34/2 12/33/1 11/38/16
f 26/35/3 27/39/17 19/40/18 18/36/4
f 27/10/17 28/7/19 20/8/20 19/11/18
f 28/7/19 29/1/5 17/4/8 20/8/20
s 4
f 36/49/21 14/50/22 15/51/23
s 5
f 35/62/24 11/63/25 12/64/26
s 1
f 22/15/11 21/14/10 1/17/27 7/18/28
f 7/18/28 6/21/29 23/19/13 22/15/11
f 6/21/29 5/24/30 24/22/15 23/19/13
f 5/41/30 8/42/31 25/34/2 24/37/15
s off
f 32/45/32 31/46/33 33/47/34 34/48/35
s 1
f 15/43/36 14/44/37 27/39/17 26/35/3
f 14/12/37 13/9/38 28/7/19 27/10/17
f 13/9/38 16/6/39 29/1/5 28/7/19
f 2/5/40 30/2/6 29/1/5 16/6/39
s off
f 26/73/41 25/74/42 31/75/43 32/76/44
f 25/25/45 8/26/46 33/27/47 31/28/48
f 8/53/49 15/51/50 34/56/51 33/57/52
f 15/29/53 26/30/54 32/31/55 34/32/56
s 5
f 18/66/57 35/62/24 12/64/26
f 19/68/58 35/62/24 18/66/57
f 20/70/59 35/62/24 19/68/58
f 17/72/60 35/62/24 20/70/59
f 17/72/60 4/71/61 35/62/24
f 35/62/24 4/71/61 3/69/62
f 35/62/24 3/69/62 9/67/63
f 35/62/24 9/67/63 10/65/64
f 35/62/24 10/65/64 11/63/25
s 4
f 8/53/65 36/49/21 15/51/23
f 5/55/66 36/49/21 8/53/65
f 6/59/67 36/49/21 5/55/66
f 7/61/68 36/49/21 6/59/67
f 1/60/69 36/49/21 7/61/68
f 2/58/70 36/49/21 1/60/69
f 13/52/71 14/50/22 36/49/21
f 13/52/71 36/49/21 16/54/72
f 16/54/72 36/49/21 2/58/70
