# This file uses centimeters as units for non-parametric coordinates.

mtllib M_ConcessionROUGH.mtl
g default
v -14.345136 -1.262181 -44.014197
v -10.345136 -1.262181 -44.014197
v -14.345136 2.737819 -44.014197
v -10.345136 2.737819 -44.014197
v -14.345136 2.737819 -48.014197
v -10.345136 2.737819 -48.014197
v -14.345136 -1.262181 -48.014197
v -10.345136 -1.262181 -48.014197
vt 0.375000 0.000000
vt 0.625000 0.000000
vt 0.375000 0.250000
vt 0.625000 0.250000
vt 0.375000 0.500000
vt 0.625000 0.500000
vt 0.375000 0.750000
vt 0.625000 0.750000
vt 0.375000 1.000000
vt 0.625000 1.000000
vt 0.875000 0.000000
vt 0.875000 0.250000
vt 0.125000 0.000000
vt 0.125000 0.250000
vn 0.000000 0.000000 1.000000
vn 0.000000 0.000000 1.000000
vn 0.000000 0.000000 1.000000
vn 0.000000 0.000000 1.000000
vn 0.000000 1.000000 0.000000
vn 0.000000 1.000000 0.000000
vn 0.000000 1.000000 0.000000
vn 0.000000 1.000000 0.000000
vn 0.000000 0.000000 -1.000000
vn 0.000000 0.000000 -1.000000
vn 0.000000 0.000000 -1.000000
vn 0.000000 0.000000 -1.000000
vn 0.000000 -1.000000 0.000000
vn 0.000000 -1.000000 0.000000
vn 0.000000 -1.000000 0.000000
vn 0.000000 -1.000000 0.000000
vn 1.000000 0.000000 0.000000
vn 1.000000 0.000000 0.000000
vn 1.000000 0.000000 0.000000
vn 1.000000 0.000000 0.000000
vn -1.000000 0.000000 0.000000
vn -1.000000 0.000000 0.000000
vn -1.000000 0.000000 0.000000
vn -1.000000 0.000000 0.000000
s off
g pCube23
usemtl initialShadingGroup
f 1/1/1 2/2/2 4/4/3 3/3/4
f 3/3/5 4/4/6 6/6/7 5/5/8
f 5/5/9 6/6/10 8/8/11 7/7/12
f 7/7/13 8/8/14 2/10/15 1/9/16
f 2/2/17 8/11/18 6/12/19 4/4/20
f 7/13/21 1/1/22 3/3/23 5/14/24
g default
v -2.112489 -1.262181 -44.014197
v 1.887511 -1.262181 -44.014197
v -2.112489 2.737819 -44.014197
v 1.887511 2.737819 -44.014197
v -2.112489 2.737819 -48.014197
v 1.887511 2.737819 -48.014197
v -2.112489 -1.262181 -48.014197
v 1.887511 -1.262181 -48.014197
vt 0.375000 0.000000
vt 0.625000 0.000000
vt 0.375000 0.250000
vt 0.625000 0.250000
vt 0.375000 0.500000
vt 0.625000 0.500000
vt 0.375000 0.750000
vt 0.625000 0.750000
vt 0.375000 1.000000
vt 0.625000 1.000000
vt 0.875000 0.000000
vt 0.875000 0.250000
vt 0.125000 0.000000
vt 0.125000 0.250000
vn 0.000000 0.000000 1.000000
vn 0.000000 0.000000 1.000000
vn 0.000000 0.000000 1.000000
vn 0.000000 0.000000 1.000000
vn 0.000000 1.000000 0.000000
vn 0.000000 1.000000 0.000000
vn 0.000000 1.000000 0.000000
vn 0.000000 1.000000 0.000000
vn 0.000000 0.000000 -1.000000
vn 0.000000 0.000000 -1.000000
vn 0.000000 0.000000 -1.000000
vn 0.000000 0.000000 -1.000000
vn 0.000000 -1.000000 0.000000
vn 0.000000 -1.000000 0.000000
vn 0.000000 -1.000000 0.000000
vn 0.000000 -1.000000 0.000000
vn 1.000000 0.000000 0.000000
vn 1.000000 0.000000 0.000000
vn 1.000000 0.000000 0.000000
vn 1.000000 0.000000 0.000000
vn -1.000000 0.000000 0.000000
vn -1.000000 0.000000 0.000000
vn -1.000000 0.000000 0.000000
vn -1.000000 0.000000 0.000000
s off
g pCube20
usemtl initialShadingGroup
f 9/15/25 10/16/26 12/18/27 11/17/28
f 11/17/29 12/18/30 14/20/31 13/19/32
f 13/19/33 14/20/34 16/22/35 15/21/36
f 15/21/37 16/22/38 10/24/39 9/23/40
f 10/16/41 16/25/42 14/26/43 12/18/44
f 15/27/45 9/15/46 11/17/47 13/28/48
g default
v -10.130153 -1.000000 -43.898611
v -2.130153 -1.000000 -43.898611
v -10.130153 1.000000 -43.898611
v -2.130153 1.000000 -43.898611
v -10.130153 1.000000 -47.898611
v -2.130153 1.000000 -47.898611
v -10.130153 -1.000000 -47.898611
v -2.130153 -1.000000 -47.898611
v -10.130153 1.000000 -45.898611
v -2.130153 1.000000 -45.898611
v -2.130153 -1.000000 -45.898611
v -10.130153 -1.000000 -45.898611
v -10.130153 3.000000 -45.898611
v -2.130153 3.000000 -45.898611
v -2.130153 3.000000 -47.898611
v -10.130153 3.000000 -47.898611
vt 0.375000 0.000000
vt 0.625000 0.000000
vt 0.375000 0.250000
vt 0.625000 0.250000
vt 0.375000 0.500000
vt 0.625000 0.500000
vt 0.375000 0.750000
vt 0.625000 0.750000
vt 0.375000 1.000000
vt 0.625000 1.000000
vt 0.875000 0.000000
vt 0.875000 0.250000
vt 0.125000 0.000000
vt 0.125000 0.250000
vt 0.250000 0.250000
vt 0.375000 0.375000
vt 0.625000 0.375000
vt 0.750000 0.250000
vt 0.625000 0.875000
vt 0.750000 0.000000
vt 0.250000 0.000000
vt 0.375000 0.875000
vt 0.375000 0.375000
vt 0.625000 0.375000
vt 0.625000 0.500000
vt 0.375000 0.500000
vn 0.000000 0.000000 1.000000
vn 0.000000 0.000000 1.000000
vn 0.000000 0.000000 1.000000
vn 0.000000 0.000000 1.000000
vn 0.000000 1.000000 0.000000
vn 0.000000 1.000000 0.000000
vn 0.000000 1.000000 0.000000
vn 0.000000 1.000000 0.000000
vn 0.000000 0.000000 -1.000000
vn 0.000000 0.000000 -1.000000
vn 0.000000 0.000000 -1.000000
vn 0.000000 0.000000 -1.000000
vn 0.000000 -1.000000 0.000000
vn 0.000000 -1.000000 0.000000
vn 0.000000 -1.000000 0.000000
vn 0.000000 -1.000000 0.000000
vn 1.000000 0.000000 0.000000
vn 1.000000 0.000000 0.000000
vn 1.000000 0.000000 0.000000
vn 1.000000 0.000000 0.000000
vn -1.000000 0.000000 0.000000
vn -1.000000 0.000000 0.000000
vn -1.000000 0.000000 0.000000
vn -1.000000 0.000000 0.000000
vn 0.000000 1.000000 0.000000
vn 0.000000 1.000000 0.000000
vn 0.000000 1.000000 0.000000
vn 0.000000 1.000000 0.000000
vn 1.000000 0.000000 0.000000
vn 1.000000 0.000000 0.000000
vn 0.000000 -1.000000 0.000000
vn 0.000000 -1.000000 0.000000
vn -1.000000 0.000000 0.000000
vn -1.000000 0.000000 0.000000
vn 0.000000 0.000000 1.000000
vn 0.000000 0.000000 1.000000
vn 0.000000 0.000000 1.000000
vn 0.000000 0.000000 1.000000
vn 1.000000 0.000000 0.000000
vn 1.000000 0.000000 0.000000
vn 1.000000 0.000000 0.000000
vn 1.000000 0.000000 0.000000
vn 0.000000 0.000000 -1.000000
vn 0.000000 0.000000 -1.000000
vn 0.000000 0.000000 -1.000000
vn 0.000000 0.000000 -1.000000
vn -1.000000 0.000000 0.000000
vn -1.000000 0.000000 0.000000
vn -1.000000 0.000000 0.000000
vn -1.000000 0.000000 0.000000
s off
g pCube19
usemtl initialShadingGroup
f 17/29/49 18/30/50 20/32/51 19/31/52
f 29/51/53 30/52/54 31/53/55 32/54/56
f 21/33/57 22/34/58 24/36/59 23/35/60
s 1
f 23/35/61 24/36/62 27/47/63 28/50/64
s 2
f 26/46/65 27/48/66 24/39/67 22/40/68
s 3
f 23/41/69 28/49/70 25/43/71 21/42/72
s off
f 19/31/73 20/32/74 26/45/75 25/44/76
s 2
f 18/30/77 27/48/66 26/46/65 20/32/78
s 1
f 28/50/64 27/47/63 18/38/79 17/37/80
s 3
f 25/43/71 28/49/70 17/29/81 19/31/82
s off
f 25/44/83 26/45/84 30/52/85 29/51/86
f 26/45/87 22/34/88 31/53/89 30/52/90
f 22/34/91 21/33/92 32/54/93 31/53/94
f 21/33/95 25/44/96 29/51/97 32/54/98
g default
v -7.134565 1.256736 -44.134772
v -5.134565 1.256736 -44.134772
v -7.134565 2.138939 -44.605643
v -5.134565 2.138939 -44.605643
v -7.134565 1.903503 -45.046744
v -5.134565 1.903503 -45.046744
v -7.134565 1.021301 -44.575873
v -5.134565 1.021301 -44.575873
vt 0.375000 0.000000
vt 0.625000 0.000000
vt 0.375000 0.250000
vt 0.625000 0.250000
vt 0.375000 0.500000
vt 0.625000 0.500000
vt 0.375000 0.750000
vt 0.625000 0.750000
vt 0.375000 1.000000
vt 0.625000 1.000000
vt 0.875000 0.000000
vt 0.875000 0.250000
vt 0.125000 0.000000
vt 0.125000 0.250000
vn 0.000000 0.470870 0.882202
vn 0.000000 0.470870 0.882202
vn 0.000000 0.470870 0.882202
vn 0.000000 0.470870 0.882202
vn 0.000000 0.882202 -0.470870
vn 0.000000 0.882202 -0.470870
vn 0.000000 0.882202 -0.470870
vn 0.000000 0.882202 -0.470870
vn 0.000000 -0.470870 -0.882202
vn 0.000000 -0.470870 -0.882202
vn 0.000000 -0.470870 -0.882202
vn 0.000000 -0.470870 -0.882202
vn 0.000000 -0.882202 0.470870
vn 0.000000 -0.882202 0.470870
vn 0.000000 -0.882202 0.470870
vn 0.000000 -0.882202 0.470870
vn 1.000000 0.000000 0.000000
vn 1.000000 0.000000 0.000000
vn 1.000000 0.000000 0.000000
vn 1.000000 0.000000 0.000000
vn -1.000000 0.000000 0.000000
vn -1.000000 0.000000 0.000000
vn -1.000000 0.000000 0.000000
vn -1.000000 0.000000 0.000000
s off
g pCube27
usemtl initialShadingGroup
f 33/55/99 34/56/100 36/58/101 35/57/102
f 35/57/103 36/58/104 38/60/105 37/59/106
f 37/59/107 38/60/108 40/62/109 39/61/110
f 39/61/111 40/62/112 34/64/113 33/63/114
f 34/56/115 40/65/116 38/66/117 36/58/118
f 39/67/119 33/55/120 35/57/121 37/68/122
g default
v -7.134565 1.776869 -44.782493
v -5.134565 1.776869 -44.782493
v -7.134565 2.659072 -45.253363
v -5.134565 2.659072 -45.253363
v -7.134565 2.423637 -45.694464
v -5.134565 2.423637 -45.694464
v -7.134565 1.541434 -45.223594
v -5.134565 1.541434 -45.223594
vt 0.375000 0.000000
vt 0.625000 0.000000
vt 0.375000 0.250000
vt 0.625000 0.250000
vt 0.375000 0.500000
vt 0.625000 0.500000
vt 0.375000 0.750000
vt 0.625000 0.750000
vt 0.375000 1.000000
vt 0.625000 1.000000
vt 0.875000 0.000000
vt 0.875000 0.250000
vt 0.125000 0.000000
vt 0.125000 0.250000
vn 0.000000 0.470870 0.882202
vn 0.000000 0.470870 0.882202
vn 0.000000 0.470870 0.882202
vn 0.000000 0.470870 0.882202
vn 0.000000 0.882202 -0.470870
vn 0.000000 0.882202 -0.470870
vn 0.000000 0.882202 -0.470870
vn 0.000000 0.882202 -0.470870
vn 0.000000 -0.470870 -0.882202
vn 0.000000 -0.470870 -0.882202
vn 0.000000 -0.470870 -0.882202
vn 0.000000 -0.470870 -0.882202
vn 0.000000 -0.882202 0.470870
vn 0.000000 -0.882202 0.470870
vn 0.000000 -0.882202 0.470870
vn 0.000000 -0.882202 0.470870
vn 1.000000 0.000000 0.000000
vn 1.000000 0.000000 0.000000
vn 1.000000 0.000000 0.000000
vn 1.000000 0.000000 0.000000
vn -1.000000 0.000000 0.000000
vn -1.000000 0.000000 0.000000
vn -1.000000 0.000000 0.000000
vn -1.000000 0.000000 0.000000
s off
g pCube26
usemtl initialShadingGroup
f 41/69/123 42/70/124 44/72/125 43/71/126
f 43/71/127 44/72/128 46/74/129 45/73/130
f 45/73/131 46/74/132 48/76/133 47/75/134
f 47/75/135 48/76/136 42/78/137 41/77/138
f 42/70/139 48/79/140 46/80/141 44/72/142
f 47/81/143 41/69/144 43/71/145 45/82/146
g default
v -9.249892 1.776869 -44.782493
v -7.249892 1.776869 -44.782493
v -9.249892 2.659072 -45.253363
v -7.249892 2.659072 -45.253363
v -9.249892 2.423637 -45.694464
v -7.249892 2.423637 -45.694464
v -9.249892 1.541434 -45.223594
v -7.249892 1.541434 -45.223594
vt 0.375000 0.000000
vt 0.625000 0.000000
vt 0.375000 0.250000
vt 0.625000 0.250000
vt 0.375000 0.500000
vt 0.625000 0.500000
vt 0.375000 0.750000
vt 0.625000 0.750000
vt 0.375000 1.000000
vt 0.625000 1.000000
vt 0.875000 0.000000
vt 0.875000 0.250000
vt 0.125000 0.000000
vt 0.125000 0.250000
vn 0.000000 0.470870 0.882202
vn 0.000000 0.470870 0.882202
vn 0.000000 0.470870 0.882202
vn 0.000000 0.470870 0.882202
vn 0.000000 0.882202 -0.470870
vn 0.000000 0.882202 -0.470870
vn 0.000000 0.882202 -0.470870
vn 0.000000 0.882202 -0.470870
vn 0.000000 -0.470870 -0.882202
vn 0.000000 -0.470870 -0.882202
vn 0.000000 -0.470870 -0.882202
vn 0.000000 -0.470870 -0.882202
vn 0.000000 -0.882202 0.470870
vn 0.000000 -0.882202 0.470870
vn 0.000000 -0.882202 0.470870
vn 0.000000 -0.882202 0.470870
vn 1.000000 0.000000 0.000000
vn 1.000000 0.000000 0.000000
vn 1.000000 0.000000 0.000000
vn 1.000000 0.000000 0.000000
vn -1.000000 0.000000 0.000000
vn -1.000000 0.000000 0.000000
vn -1.000000 0.000000 0.000000
vn -1.000000 0.000000 0.000000
s off
g pCube25
usemtl initialShadingGroup
f 49/83/147 50/84/148 52/86/149 51/85/150
f 51/85/151 52/86/152 54/88/153 53/87/154
f 53/87/155 54/88/156 56/90/157 55/89/158
f 55/89/159 56/90/160 50/92/161 49/91/162
f 50/84/163 56/93/164 54/94/165 52/86/166
f 55/95/167 49/83/168 51/85/169 53/96/170
g default
v -9.249892 1.256736 -44.134772
v -7.249892 1.256736 -44.134772
v -9.249892 2.138939 -44.605643
v -7.249892 2.138939 -44.605643
v -9.249892 1.903503 -45.046744
v -7.249892 1.903503 -45.046744
v -9.249892 1.021301 -44.575873
v -7.249892 1.021301 -44.575873
vt 0.375000 0.000000
vt 0.625000 0.000000
vt 0.375000 0.250000
vt 0.625000 0.250000
vt 0.375000 0.500000
vt 0.625000 0.500000
vt 0.375000 0.750000
vt 0.625000 0.750000
vt 0.375000 1.000000
vt 0.625000 1.000000
vt 0.875000 0.000000
vt 0.875000 0.250000
vt 0.125000 0.000000
vt 0.125000 0.250000
vn 0.000000 0.470870 0.882202
vn 0.000000 0.470870 0.882202
vn 0.000000 0.470870 0.882202
vn 0.000000 0.470870 0.882202
vn 0.000000 0.882202 -0.470870
vn 0.000000 0.882202 -0.470870
vn 0.000000 0.882202 -0.470870
vn 0.000000 0.882202 -0.470870
vn 0.000000 -0.470870 -0.882202
vn 0.000000 -0.470870 -0.882202
vn 0.000000 -0.470870 -0.882202
vn 0.000000 -0.470870 -0.882202
vn 0.000000 -0.882202 0.470870
vn 0.000000 -0.882202 0.470870
vn 0.000000 -0.882202 0.470870
vn 0.000000 -0.882202 0.470870
vn 1.000000 0.000000 0.000000
vn 1.000000 0.000000 0.000000
vn 1.000000 0.000000 0.000000
vn 1.000000 0.000000 0.000000
vn -1.000000 0.000000 0.000000
vn -1.000000 0.000000 0.000000
vn -1.000000 0.000000 0.000000
vn -1.000000 0.000000 0.000000
s off
g pCube24
usemtl initialShadingGroup
f 57/97/171 58/98/172 60/100/173 59/99/174
f 59/99/175 60/100/176 62/102/177 61/101/178
f 61/101/179 62/102/180 64/104/181 63/103/182
f 63/103/183 64/104/184 58/106/185 57/105/186
f 58/98/187 64/107/188 62/108/189 60/100/190
f 63/109/191 57/97/192 59/99/193 61/110/194
g default
v 10.022465 -1.262181 -44.014197
v 14.022465 -1.262181 -44.014197
v 10.022465 2.737819 -44.014197
v 14.022465 2.737819 -44.014197
v 10.022465 2.737819 -48.014197
v 14.022465 2.737819 -48.014197
v 10.022465 -1.262181 -48.014197
v 14.022465 -1.262181 -48.014197
vt 0.375000 0.000000
vt 0.625000 0.000000
vt 0.375000 0.250000
vt 0.625000 0.250000
vt 0.375000 0.500000
vt 0.625000 0.500000
vt 0.375000 0.750000
vt 0.625000 0.750000
vt 0.375000 1.000000
vt 0.625000 1.000000
vt 0.875000 0.000000
vt 0.875000 0.250000
vt 0.125000 0.000000
vt 0.125000 0.250000
vn 0.000000 0.000000 1.000000
vn 0.000000 0.000000 1.000000
vn 0.000000 0.000000 1.000000
vn 0.000000 0.000000 1.000000
vn 0.000000 1.000000 0.000000
vn 0.000000 1.000000 0.000000
vn 0.000000 1.000000 0.000000
vn 0.000000 1.000000 0.000000
vn 0.000000 0.000000 -1.000000
vn 0.000000 0.000000 -1.000000
vn 0.000000 0.000000 -1.000000
vn 0.000000 0.000000 -1.000000
vn 0.000000 -1.000000 0.000000
vn 0.000000 -1.000000 0.000000
vn 0.000000 -1.000000 0.000000
vn 0.000000 -1.000000 0.000000
vn 1.000000 0.000000 0.000000
vn 1.000000 0.000000 0.000000
vn 1.000000 0.000000 0.000000
vn 1.000000 0.000000 0.000000
vn -1.000000 0.000000 0.000000
vn -1.000000 0.000000 0.000000
vn -1.000000 0.000000 0.000000
vn -1.000000 0.000000 0.000000
s off
g pCube22
usemtl initialShadingGroup
f 65/111/195 66/112/196 68/114/197 67/113/198
f 67/113/199 68/114/200 70/116/201 69/115/202
f 69/115/203 70/116/204 72/118/205 71/117/206
f 71/117/207 72/118/208 66/120/209 65/119/210
f 66/112/211 72/121/212 70/122/213 68/114/214
f 71/123/215 65/111/216 67/113/217 69/124/218
g default
v 2.025397 -1.000000 -43.898611
v 10.025397 -1.000000 -43.898611
v 2.025397 1.000000 -43.898611
v 10.025397 1.000000 -43.898611
v 2.025397 1.000000 -47.898611
v 10.025397 1.000000 -47.898611
v 2.025397 -1.000000 -47.898611
v 10.025397 -1.000000 -47.898611
v 2.025397 1.000000 -45.898611
v 10.025397 1.000000 -45.898611
v 10.025397 -1.000000 -45.898611
v 2.025397 -1.000000 -45.898611
v 2.025397 3.000000 -45.898611
v 10.025397 3.000000 -45.898611
v 10.025397 3.000000 -47.898611
v 2.025397 3.000000 -47.898611
vt 0.375000 0.000000
vt 0.625000 0.000000
vt 0.375000 0.250000
vt 0.625000 0.250000
vt 0.375000 0.500000
vt 0.625000 0.500000
vt 0.375000 0.750000
vt 0.625000 0.750000
vt 0.375000 1.000000
vt 0.625000 1.000000
vt 0.875000 0.000000
vt 0.875000 0.250000
vt 0.125000 0.000000
vt 0.125000 0.250000
vt 0.250000 0.250000
vt 0.375000 0.375000
vt 0.625000 0.375000
vt 0.750000 0.250000
vt 0.625000 0.875000
vt 0.750000 0.000000
vt 0.250000 0.000000
vt 0.375000 0.875000
vt 0.375000 0.375000
vt 0.625000 0.375000
vt 0.625000 0.500000
vt 0.375000 0.500000
vn 0.000000 0.000000 1.000000
vn 0.000000 0.000000 1.000000
vn 0.000000 0.000000 1.000000
vn 0.000000 0.000000 1.000000
vn 0.000000 1.000000 0.000000
vn 0.000000 1.000000 0.000000
vn 0.000000 1.000000 0.000000
vn 0.000000 1.000000 0.000000
vn 0.000000 0.000000 -1.000000
vn 0.000000 0.000000 -1.000000
vn 0.000000 0.000000 -1.000000
vn 0.000000 0.000000 -1.000000
vn 0.000000 -1.000000 0.000000
vn 0.000000 -1.000000 0.000000
vn 0.000000 -1.000000 0.000000
vn 0.000000 -1.000000 0.000000
vn 1.000000 0.000000 0.000000
vn 1.000000 0.000000 0.000000
vn 1.000000 0.000000 0.000000
vn 1.000000 0.000000 0.000000
vn -1.000000 0.000000 0.000000
vn -1.000000 0.000000 0.000000
vn -1.000000 0.000000 0.000000
vn -1.000000 0.000000 0.000000
vn 0.000000 1.000000 0.000000
vn 0.000000 1.000000 0.000000
vn 0.000000 1.000000 0.000000
vn 0.000000 1.000000 0.000000
vn 1.000000 0.000000 0.000000
vn 1.000000 0.000000 0.000000
vn 0.000000 -1.000000 0.000000
vn 0.000000 -1.000000 0.000000
vn -1.000000 0.000000 0.000000
vn -1.000000 0.000000 0.000000
vn 0.000000 0.000000 1.000000
vn 0.000000 0.000000 1.000000
vn 0.000000 0.000000 1.000000
vn 0.000000 0.000000 1.000000
vn 1.000000 0.000000 0.000000
vn 1.000000 0.000000 0.000000
vn 1.000000 0.000000 0.000000
vn 1.000000 0.000000 0.000000
vn 0.000000 0.000000 -1.000000
vn 0.000000 0.000000 -1.000000
vn 0.000000 0.000000 -1.000000
vn 0.000000 0.000000 -1.000000
vn -1.000000 0.000000 0.000000
vn -1.000000 0.000000 0.000000
vn -1.000000 0.000000 0.000000
vn -1.000000 0.000000 0.000000
s off
g pCube21
usemtl initialShadingGroup
f 73/125/219 74/126/220 76/128/221 75/127/222
f 85/147/223 86/148/224 87/149/225 88/150/226
f 77/129/227 78/130/228 80/132/229 79/131/230
s 1
f 79/131/231 80/132/232 83/143/233 84/146/234
s 2
f 82/142/235 83/144/236 80/135/237 78/136/238
s 3
f 79/137/239 84/145/240 81/139/241 77/138/242
s off
f 75/127/243 76/128/244 82/141/245 81/140/246
s 2
f 74/126/247 83/144/236 82/142/235 76/128/248
s 1
f 84/146/234 83/143/233 74/134/249 73/133/250
s 3
f 81/139/241 84/145/240 73/125/251 75/127/252
s off
f 81/140/253 82/141/254 86/148/255 85/147/256
f 82/141/257 78/130/258 87/149/259 86/148/260
f 78/130/261 77/129/262 88/150/263 87/149/264
f 77/129/265 81/140/266 85/147/267 88/150/268
g default
v -4.967163 1.256736 -44.134772
v -2.967163 1.256736 -44.134772
v -4.967163 2.138939 -44.605643
v -2.967163 2.138939 -44.605643
v -4.967163 1.903503 -45.046744
v -2.967163 1.903503 -45.046744
v -4.967163 1.021301 -44.575873
v -2.967163 1.021301 -44.575873
vt 0.375000 0.000000
vt 0.625000 0.000000
vt 0.375000 0.250000
vt 0.625000 0.250000
vt 0.375000 0.500000
vt 0.625000 0.500000
vt 0.375000 0.750000
vt 0.625000 0.750000
vt 0.375000 1.000000
vt 0.625000 1.000000
vt 0.875000 0.000000
vt 0.875000 0.250000
vt 0.125000 0.000000
vt 0.125000 0.250000
vn 0.000000 0.470870 0.882202
vn 0.000000 0.470870 0.882202
vn 0.000000 0.470870 0.882202
vn 0.000000 0.470870 0.882202
vn 0.000000 0.882202 -0.470870
vn 0.000000 0.882202 -0.470870
vn 0.000000 0.882202 -0.470870
vn 0.000000 0.882202 -0.470870
vn 0.000000 -0.470870 -0.882202
vn 0.000000 -0.470870 -0.882202
vn 0.000000 -0.470870 -0.882202
vn 0.000000 -0.470870 -0.882202
vn 0.000000 -0.882202 0.470870
vn 0.000000 -0.882202 0.470870
vn 0.000000 -0.882202 0.470870
vn 0.000000 -0.882202 0.470870
vn 1.000000 0.000000 0.000000
vn 1.000000 0.000000 0.000000
vn 1.000000 0.000000 0.000000
vn 1.000000 0.000000 0.000000
vn -1.000000 0.000000 0.000000
vn -1.000000 0.000000 0.000000
vn -1.000000 0.000000 0.000000
vn -1.000000 0.000000 0.000000
s off
g pCube29
usemtl initialShadingGroup
f 89/151/269 90/152/270 92/154/271 91/153/272
f 91/153/273 92/154/274 94/156/275 93/155/276
f 93/155/277 94/156/278 96/158/279 95/157/280
f 95/157/281 96/158/282 90/160/283 89/159/284
f 90/152/285 96/161/286 94/162/287 92/154/288
f 95/163/289 89/151/290 91/153/291 93/164/292
g default
v -4.967163 1.776869 -44.782493
v -2.967163 1.776869 -44.782493
v -4.967163 2.659072 -45.253363
v -2.967163 2.659072 -45.253363
v -4.967163 2.423637 -45.694464
v -2.967163 2.423637 -45.694464
v -4.967163 1.541434 -45.223594
v -2.967163 1.541434 -45.223594
vt 0.375000 0.000000
vt 0.625000 0.000000
vt 0.375000 0.250000
vt 0.625000 0.250000
vt 0.375000 0.500000
vt 0.625000 0.500000
vt 0.375000 0.750000
vt 0.625000 0.750000
vt 0.375000 1.000000
vt 0.625000 1.000000
vt 0.875000 0.000000
vt 0.875000 0.250000
vt 0.125000 0.000000
vt 0.125000 0.250000
vn 0.000000 0.470870 0.882202
vn 0.000000 0.470870 0.882202
vn 0.000000 0.470870 0.882202
vn 0.000000 0.470870 0.882202
vn 0.000000 0.882202 -0.470870
vn 0.000000 0.882202 -0.470870
vn 0.000000 0.882202 -0.470870
vn 0.000000 0.882202 -0.470870
vn 0.000000 -0.470870 -0.882202
vn 0.000000 -0.470870 -0.882202
vn 0.000000 -0.470870 -0.882202
vn 0.000000 -0.470870 -0.882202
vn 0.000000 -0.882202 0.470870
vn 0.000000 -0.882202 0.470870
vn 0.000000 -0.882202 0.470870
vn 0.000000 -0.882202 0.470870
vn 1.000000 0.000000 0.000000
vn 1.000000 0.000000 0.000000
vn 1.000000 0.000000 0.000000
vn 1.000000 0.000000 0.000000
vn -1.000000 0.000000 0.000000
vn -1.000000 0.000000 0.000000
vn -1.000000 0.000000 0.000000
vn -1.000000 0.000000 0.000000
s off
g pCube28
usemtl initialShadingGroup
f 97/165/293 98/166/294 100/168/295 99/167/296
f 99/167/297 100/168/298 102/170/299 101/169/300
f 101/169/301 102/170/302 104/172/303 103/171/304
f 103/171/305 104/172/306 98/174/307 97/173/308
f 98/166/309 104/175/310 102/176/311 100/168/312
f 103/177/313 97/165/314 99/167/315 101/178/316
