# This file uses centimeters as units for non-parametric coordinates.

mtllib M_TheatrePanel.mtl
g default
v -3.000000 -0.043412 0.246202
v 3.000000 -0.043412 0.246202
v -3.000000 7.835046 1.635387
v 3.000000 7.835046 1.635387
v -3.000000 7.921871 1.142983
v 3.000000 7.921871 1.142983
v -3.000000 0.043412 -0.246202
v 3.000000 0.043412 -0.246202
v -0.500000 5.459853 0.708863
v 0.500000 5.459853 0.708863
v 0.500000 2.505430 0.187918
v -0.500000 2.505430 0.187918
v -0.500000 5.482577 -1.845500
v 0.500000 5.482577 -1.845500
v 0.500000 2.482707 -1.873327
v -0.500000 2.482707 -1.873327
v -2.800000 0.153550 0.280932
v 2.800000 0.153550 0.280932
v 2.800000 7.638086 1.600658
v -2.800000 7.638086 1.600658
v -3.000000 -0.060777 0.344683
v 3.000000 -0.060777 0.344683
v 2.800000 0.136185 0.379412
v -2.800000 0.136185 0.379412
v 3.000000 7.817682 1.733868
v 2.800000 7.620721 1.699138
v -3.000000 7.817682 1.733868
v -2.800000 7.620721 1.699138
vt 0.610260 0.180285
vt 0.610260 0.001799
vt 0.788747 0.001799
vt 0.788747 0.180286
vt 0.788747 0.215983
vt 0.610260 0.215983
vt 0.795411 0.215983
vt 0.795411 0.037496
vt 0.973897 0.037496
vt 0.973897 0.215983
vt 0.795411 0.001799
vt 0.973897 0.001799
vt 0.151665 0.901194
vt 0.084732 0.901194
vt 0.076247 0.177972
vt 0.142268 0.001799
vt 0.166588 0.001799
vt 0.233521 0.001799
vt 0.224124 0.901194
vt 0.158103 0.725021
vt 0.420344 0.389537
vt 0.420344 0.219974
vt 0.456041 0.219974
vt 0.456041 0.389537
vt 0.414209 0.219974
vt 0.414209 0.389537
vt 0.378511 0.389537
vt 0.378511 0.219974
vt 0.239959 0.037496
vt 0.418446 0.037496
vt 0.418446 0.215983
vt 0.239959 0.215983
vt 0.239959 0.001799
vt 0.418446 0.001799
vt 0.001992 0.001799
vt 0.031740 0.001799
vt 0.031740 0.177972
vt 0.001992 0.177972
vt 0.031740 0.901194
vt 0.001992 0.901194
vt 0.425110 0.001799
vt 0.603596 0.001799
vt 0.603596 0.180285
vt 0.425110 0.180285
vt 0.603596 0.215983
vt 0.425110 0.215983
vt 0.039217 0.001799
vt 0.068965 0.001799
vt 0.068965 0.901194
vt 0.039217 0.901194
vt 0.372376 0.219974
vt 0.372376 0.386562
vt 0.336679 0.386562
vt 0.336679 0.219974
vt 0.294846 0.386562
vt 0.294846 0.219974
vt 0.330543 0.219974
vt 0.330543 0.386562
vt 0.462177 0.219974
vt 0.628764 0.219974
vt 0.628764 0.389537
vt 0.462177 0.389537
vt 0.819521 0.219974
vt 0.998008 0.219974
vt 0.923639 0.275751
vt 0.893891 0.275751
vt 0.998008 0.398461
vt 0.923639 0.342684
vt 0.819521 0.398461
vt 0.893891 0.342684
vt 0.634899 0.398461
vt 0.634899 0.219974
vt 0.639362 0.225924
vt 0.639362 0.392512
vt 0.813386 0.219974
vt 0.808924 0.225924
vt 0.813386 0.398461
vt 0.808924 0.392512
vn 0.000000 -0.173648 0.984808
vn 0.000000 -0.173648 0.984808
vn 0.000000 -0.173648 0.984808
vn 0.000000 -0.173648 0.984808
vn 0.000000 0.984808 0.173648
vn 0.000000 0.984808 0.173648
vn 0.000000 0.984808 0.173649
vn 0.000000 0.984808 0.173649
vn 0.000000 0.009276 -0.999957
vn 0.000000 0.009276 -0.999957
vn 0.000000 0.009276 -0.999957
vn 0.000000 0.009276 -0.999957
vn 0.000000 -0.984808 -0.173648
vn 0.000000 -0.984808 -0.173648
vn 0.000000 -0.984808 -0.173648
vn 0.000000 -0.984808 -0.173648
vn 1.000000 0.000000 0.000000
vn 1.000000 0.000000 0.000000
vn 1.000000 0.000000 0.000000
vn 1.000000 0.000000 0.000000
vn -1.000000 -0.000000 -0.000000
vn -1.000000 -0.000000 -0.000000
vn -1.000000 -0.000000 -0.000000
vn -1.000000 -0.000000 -0.000000
vn -0.000000 0.173648 -0.984808
vn 0.000000 0.173648 -0.984808
vn 0.000000 0.173648 -0.984808
vn -0.000000 0.173648 -0.984808
vn 0.000000 0.173648 -0.984808
vn 0.000000 0.173648 -0.984808
vn -0.000000 0.173648 -0.984808
vn -0.000000 0.173648 -0.984808
vn 0.000000 0.999960 0.008896
vn 0.000000 0.999960 0.008896
vn 0.000000 0.999960 0.008896
vn 0.000000 0.999960 0.008896
vn 1.000000 -0.000000 -0.000000
vn 1.000000 -0.000000 -0.000000
vn 1.000000 -0.000000 -0.000000
vn 1.000000 -0.000000 -0.000000
vn 0.000000 -0.999939 0.011023
vn 0.000000 -0.999939 0.011023
vn 0.000000 -0.999939 0.011023
vn 0.000000 -0.999939 0.011023
vn -1.000000 -0.000000 -0.000000
vn -1.000000 -0.000000 -0.000000
vn -1.000000 -0.000000 -0.000000
vn -1.000000 -0.000000 -0.000000
vn -0.000000 -0.173648 0.984808
vn 0.000000 -0.173648 0.984808
vn 0.000000 -0.173648 0.984808
vn -0.000000 -0.173648 0.984808
vn 0.000000 -0.173648 0.984808
vn 0.000000 -0.173648 0.984808
vn -0.000000 -0.173648 0.984808
vn -0.000000 -0.173648 0.984808
vn 0.000000 -0.984808 -0.173648
vn 0.000000 -0.984808 -0.173648
vn 0.000000 0.984807 0.173651
vn 0.000000 0.984807 0.173651
vn 0.000000 0.984807 0.173651
vn 0.000000 0.984807 0.173651
vn 1.000000 0.000000 0.000000
vn 1.000000 0.000000 0.000000
vn -1.000000 0.000000 0.000000
vn -1.000000 0.000000 0.000000
vn -1.000000 0.000000 0.000000
vn -1.000000 0.000000 0.000000
vn 0.000000 0.984809 0.173643
vn 0.000000 0.984809 0.173643
vn 0.000000 -0.984807 -0.173653
vn 0.000000 -0.984807 -0.173653
vn 0.000000 -0.984807 -0.173653
vn 0.000000 -0.984807 -0.173653
vn -1.000000 0.000000 0.000000
vn -1.000000 0.000000 0.000000
vn 1.000000 0.000000 0.000000
vn 1.000000 0.000000 0.000000
vn 1.000000 0.000000 0.000000
vn 1.000000 0.000000 0.000000
s off
g pCube1
usemtl initialShadingGroup
f 17/59/1 18/60/2 19/61/3 20/62/4
s 1
f 3/29/5 4/30/6 6/31/7 5/32/8
s off
f 13/35/9 14/36/10 15/37/11 16/38/12
s 2
f 7/41/13 8/42/14 2/43/15 1/44/16
s 3
f 2/1/17 8/2/18 6/3/19 4/4/20
s 4
f 7/7/21 1/8/22 3/9/23 5/10/24
s 5
f 5/63/25 6/64/26 10/65/27 9/66/28
f 6/64/26 8/67/29 11/68/30 10/65/27
f 8/67/29 7/69/31 12/70/32 11/68/30
f 7/69/31 5/63/25 9/66/28 12/70/32
s off
f 9/47/33 10/48/34 14/49/35 13/50/36
f 10/13/37 11/14/38 15/15/39 14/16/40
f 11/39/41 12/40/42 16/38/43 15/37/44
f 12/17/45 9/18/46 13/19/47 16/20/48
s 6
f 21/71/49 22/72/50 23/73/51 24/74/52
f 22/72/50 25/75/53 26/76/54 23/73/51
f 25/75/53 27/77/55 28/78/56 26/76/54
f 27/77/55 21/71/49 24/74/52 28/78/56
s 2
f 1/44/16 2/43/15 22/45/57 21/46/58
s off
f 18/51/59 17/52/60 24/53/61 23/54/62
s 3
f 2/1/17 4/4/20 25/5/63 22/6/64
s off
f 19/21/65 18/22/66 23/23/67 26/24/68
s 1
f 4/30/6 3/29/5 27/33/69 25/34/70
s off
f 20/55/71 19/56/72 26/57/73 28/58/74
s 4
f 3/9/23 1/8/22 21/11/75 27/12/76
s off
f 17/25/77 20/26/78 28/27/79 24/28/80
